<?xml version="1.0" encoding="UTF-8"?>
<svg version="1.1" xmlns="http://www.w3.org/2000/svg" width="512" height="512">
<path d="M0 0 C0.89001709 0.00080566 1.78003418 0.00161133 2.69702148 0.00244141 C11.33132523 0.07717191 19.90330488 0.69760768 28.51098633 1.33740234 C40.27448575 2.1843501 52.04463244 2.59677904 63.83032227 3.00683594 C119.03433891 4.94987601 166.67499524 11.51398947 208.75 50.1875 C210.05852052 51.33787574 211.37086703 52.4839181 212.6875 53.625 C215.86221597 56.38534541 218.96537436 59.21542558 222.0625 62.0625 C225.60009948 65.2947998 229.19117256 68.38806326 232.9375 71.375 C276.81284602 106.91403028 304.3217995 153.49464364 319.75 207.1875 C320.09635498 208.27466309 320.44270996 209.36182617 320.79956055 210.48193359 C321.96298478 215.01788351 322.44324084 219.47120251 322.875 224.125 C322.96136719 224.99962891 323.04773438 225.87425781 323.13671875 226.77539062 C323.34689697 228.91220254 323.54925518 231.04978122 323.75 233.1875 C324.84014404 233.66469482 325.93028809 234.14188965 327.0534668 234.63354492 C339.62490663 240.1380643 352.1901691 245.65654367 364.75 251.1875 C365.92021698 251.70256104 365.92021698 251.70256104 367.11407471 252.22802734 C371.74680928 254.26789636 376.37473291 256.31825414 381 258.375 C382.67002075 259.11109497 382.67002075 259.11109497 384.3737793 259.86206055 C400.2830873 266.96639991 413.892674 275.24062672 426.375 287.375 C427.12052124 288.08692505 427.12052124 288.08692505 427.88110352 288.81323242 C431.89222362 292.85078266 434.62896902 296.92957816 434.84236526 302.6737957 C434.68583842 305.62486977 434.41472513 308.5437352 434.10009766 311.48217773 C433.99713694 312.57867614 433.89417622 313.67517454 433.78809547 314.80490017 C433.45891356 318.26764342 433.10510027 321.72732967 432.75 325.1875 C432.54252553 327.33351076 432.33665917 329.47967769 432.13250732 331.62600708 C431.4969039 338.2442283 430.82401117 344.85841518 430.1484375 351.47265625 C429.90444402 353.880709 429.66068448 356.28878547 429.41714478 358.69688416 C428.78490727 364.94228374 428.14955836 371.18736274 427.51348877 377.43237305 C426.86122424 383.84208898 426.2120024 390.25211307 425.5625 396.66210938 C424.29459055 409.17087084 423.02338335 421.67929467 421.75 434.1875 C422.66979204 434.38871224 422.66979204 434.38871224 423.60816574 434.59398937 C424.41509495 434.77165498 425.22202415 434.94932058 426.05340576 435.13237 C426.85222546 435.30776149 427.65104515 435.48315298 428.4740715 435.66385937 C433.40888213 436.79924976 438.19099352 438.42759702 443 440 C444.0621875 440.33064453 445.124375 440.66128906 446.21875 441.00195312 C451.95473303 442.87911843 456.0123926 444.35576394 459.75 449.1875 C461.60110583 452.88971166 461.21454795 457.14656917 460.75 461.1875 C458.62077256 464.83760418 456.61238962 466.60788293 452.75 468.1875 C450.31072998 468.45492554 450.31072998 468.45492554 447.55761719 468.47802734 C446.52264099 468.49078705 445.48766479 468.50354675 444.42132568 468.51669312 C443.30775696 468.51891876 442.19418823 468.52114441 441.046875 468.5234375 C439.8951178 468.5300943 438.7433606 468.5367511 437.55670166 468.54360962 C435.11903479 468.55373477 432.68134022 468.55842668 430.24365234 468.55810547 C426.52785043 468.56246731 422.81324714 468.59875928 419.09765625 468.63671875 C416.72656655 468.64258927 414.35547122 468.64655709 411.984375 468.6484375 C410.8789032 468.66280853 409.7734314 468.67717957 408.63446045 468.69198608 C401.48957322 468.65001875 395.57036596 467.82992627 390.23187256 462.74008179 C386.24367936 458.17664944 384.47122821 454.72803313 384.5625 448.6875 C384.56894531 447.7490625 384.57539063 446.810625 384.58203125 445.84375 C384.75 443.1875 384.75 443.1875 385.27392578 441.53295898 C385.98811055 438.0144087 385.72185039 434.56618274 385.53515625 431.00390625 C385.49036636 430.11248428 385.44557648 429.22106232 385.39942932 428.30262756 C384.39068515 410.28492727 382.55298762 392.30683024 380.93664551 374.3359375 C380.44510135 368.86939238 379.95778052 363.4025047 379.47633553 357.9350605 C379.25223165 355.4090283 379.02204182 352.8836006 378.79161072 350.35813904 C378.04095346 341.94518402 377.52611716 333.64458165 377.75 325.1875 C377.10754333 325.13920044 376.46508667 325.09090088 375.80316162 325.0411377 C342.50308457 322.40419166 307.51109871 307.8416254 276.88989258 295.14990234 C276.23923828 294.88320236 275.58858398 294.61650238 274.91821289 294.34172058 C273.17961984 293.62717054 271.4456866 292.90131143 269.7121582 292.17456055 C266.79128767 291.20125802 264.79490306 290.84047181 261.75 291.1875 C258.88725742 292.96143605 258.88725742 292.96143605 256 295.4375 C254.8449736 296.36643044 253.68728893 297.29206267 252.52734375 298.21484375 C251.91487793 298.7032373 251.30241211 299.19163086 250.67138672 299.69482422 C246.68983769 302.78798696 242.5274977 305.63016137 238.39257812 308.51269531 C234.69066729 311.09943425 231.01941808 313.71350008 227.40234375 316.41796875 C207.33433918 331.38443171 185.76417466 341.63161444 162.75 351.1875 C161.39249136 351.75288418 160.03506966 352.31847711 158.67773438 352.88427734 C153.70049678 354.95845601 148.72220998 357.03011181 143.74301147 359.09957886 C130.55826455 364.5801675 117.38972118 370.09884146 104.24893188 375.68408203 C102.11425431 376.58975751 99.97820277 377.49220263 97.84066772 378.39111328 C80.42252114 385.72094103 64.53310161 394.09144119 48.8125 404.5625 C47.68552884 405.30731073 46.55816211 406.05152324 45.43041992 406.79516602 C43.2134693 408.25730584 40.99791404 409.72147216 38.78320312 411.18701172 C35.41430591 413.4089003 32.03079344 415.60645087 28.63525391 417.78735352 C27.26990719 418.66847656 25.91001154 419.55811323 24.55615234 420.45678711 C21.28380571 422.62186582 18.0225423 424.59573973 14.5234375 426.375 C7.33493845 430.08237854 7.33493845 430.08237854 2.80224609 436.49511719 C1.62737982 440.86361085 1.04808065 445.18472 0.5859375 449.67578125 C0.12530643 453.21306656 -0.26178243 454.20336017 -2.49609375 457.2109375 C-10.06462919 462.6431062 -22.30370577 461.97145362 -31.25 461.1875 C-34.74070793 459.94675517 -35.13308601 459.40045049 -37 456 C-39.32005886 449.01418741 -40.06543497 439.80903609 -36.73046875 433.15625 C-33.55206695 429.35217856 -29.9964022 426.38790506 -26.125 423.3125 C-24.97994995 422.38352905 -24.97994995 422.38352905 -23.81176758 421.43579102 C-20.68129338 418.90210396 -17.53174111 416.40286034 -14.33203125 413.95703125 C-7.78694246 408.94945108 -2.39760499 403.1339618 3.08447266 397.02636719 C6.05421261 393.7475514 9.09330539 390.53391951 12.125 387.3125 C13.38678327 385.9662063 14.64850171 384.61985184 15.91015625 383.2734375 C18.51312566 380.49915871 21.12651586 377.73515932 23.74609375 374.9765625 C25.01823325 373.63021219 26.29036882 372.28385817 27.5625 370.9375 C28.15530762 370.31762207 28.74811523 369.69774414 29.35888672 369.05908203 C30.18090576 368.18678955 30.18090576 368.18678955 31.01953125 367.296875 C31.50010986 366.79124023 31.98068848 366.28560547 32.47583008 365.76464844 C33.92817419 363.96695865 34.90580637 362.34166724 35.75 360.1875 C35.54375 359.07375 35.3375 357.96 35.125 356.8125 C34.63403605 352.06651513 35.85473526 350.91329742 38.75 347.1875 C40.85295332 345.11570668 43.09116852 343.2434208 45.375 341.375 C46.63500506 340.32137649 47.89411492 339.26668154 49.15234375 338.2109375 C49.76706543 337.69756836 50.38178711 337.18419922 51.01513672 336.65527344 C54.14312664 334.00885134 57.14636645 331.22657956 60.16357422 328.45556641 C62.75 326.1875 62.75 326.1875 65.35375977 324.22167969 C72.62335296 318.72842936 77.00406089 312.98491354 81.5 305.125 C82.52737999 303.39708896 83.55479288 301.66919609 84.58450317 299.94267273 C85.63191005 298.18120519 86.67078901 296.41494334 87.70800781 294.64746094 C96.27865335 280.07888946 105.31327518 265.94514798 115.53125 252.4765625 C116.27296448 251.48393402 116.27296448 251.48393402 117.02966309 250.47125244 C118.13941895 248.99804818 119.26786657 247.53865357 120.41842651 246.09709167 C125.29234596 239.68360456 127.83163507 233.22025092 130.1670723 225.54913902 C130.80830277 223.44869442 131.47368143 221.35720829 132.14535522 219.26631165 C134.04844178 213.32814678 135.91080405 207.37753708 137.75439453 201.4206543 C142.90276503 184.83164953 148.00686778 169.81907965 158.03149414 155.40869141 C161.86227635 149.81663464 163.55309231 143.84320166 164.75 137.1875 C164.04875 137.52523437 163.3475 137.86296875 162.625 138.2109375 C152.92861841 142.7692908 143.77144525 145.40600971 132.984375 145.0703125 C132.31801025 145.0501709 131.65164551 145.0300293 130.96508789 145.00927734 C129.01095726 144.94010041 127.05808218 144.83787744 125.10546875 144.734375 C121.60675329 144.84429411 121.60675329 144.84429411 119.5859375 147.52734375 C118.98007813 148.40519531 118.37421875 149.28304687 117.75 150.1875 C111.26345051 154.87030311 104.6310171 156.43995549 96.75 155.1875 C89.54924294 153.07328808 85.12322328 148.17883007 81.375 141.875 C79.79860502 135.09650161 80.13061901 129.25142855 83.38671875 123.07421875 C84.75 121.1875 84.75 121.1875 87.38671875 118.9296875 C89.96717047 115.93551046 90.22861933 114.55122737 90.03588867 110.66845703 C89.95624878 109.6569458 89.95624878 109.6569458 89.875 108.625 C89.43782195 97.06289522 91.74036219 85.17638683 99.5 76.15234375 C110.29681245 65.89972547 123.73945123 66.04899508 137.7578125 65.7578125 C144.4255375 65.52108854 150.38895765 64.17236525 156.75 62.1875 C155.95734741 61.60633423 155.95734741 61.60633423 155.14868164 61.01342773 C152.70231477 59.21860715 150.25740373 57.42181309 147.8125 55.625 C146.98169922 55.01591797 146.15089844 54.40683594 145.29492188 53.77929688 C144.46669922 53.17021484 143.63847656 52.56113281 142.78515625 51.93359375 C141.93574463 51.31806641 141.08633301 50.70253906 140.21118164 50.06835938 C137.75 48.1875 137.75 48.1875 135.67749023 46.24414062 C129.47641277 40.58520566 123.05422052 39.81850215 114.96710205 39.03570557 C110.99670534 38.64694708 107.03956628 38.15778498 103.08203125 37.65625 C102.25181458 37.55136261 101.4215979 37.44647522 100.56622314 37.33840942 C88.7694403 35.76090158 77.22619399 32.86367438 65.67553711 30.04541016 C64.85563797 29.84935181 64.03573883 29.65329346 63.19099426 29.45129395 C61.66104802 29.08441802 60.13343539 28.70760137 58.6089325 28.31872559 C52.41307607 26.83351511 47.91048038 27.18050979 42.4375 30.4375 C41.67179687 30.8809375 40.90609375 31.324375 40.1171875 31.78125 C39.33601563 32.2453125 38.55484375 32.709375 37.75 33.1875 C28.07426061 38.93546399 28.07426061 38.93546399 22.75 39.1875 C19.5 38.1875 19.5 38.1875 16.75 36.1875 C15.02634161 32.06570819 14.47382022 29.42590729 15.75 25.1875 C15.03457031 25.15011719 14.31914063 25.11273438 13.58203125 25.07421875 C-6.23860165 23.76651852 -6.23860165 23.76651852 -11.5625 19.20703125 C-14.5346495 15.65008382 -14.57927831 12.95886612 -14.54296875 8.44921875 C-14.11344199 5.1332722 -12.64075646 3.43762373 -10.25 1.1875 C-7.02983012 -0.42258494 -3.53657212 -0.00345943 0 0 Z M-5.25 9.1875 C-4.92 10.5075 -4.59 11.8275 -4.25 13.1875 C-3.29109863 13.35878418 -2.33219727 13.53006836 -1.34423828 13.70654297 C2.2093123 14.34344532 5.76091175 14.99069809 9.31201172 15.64111328 C10.84990943 15.92129182 12.38832341 16.19865164 13.92724609 16.47314453 C16.13780893 16.8679388 18.34632348 17.27279674 20.5546875 17.6796875 C21.24432587 17.8006076 21.93396423 17.92152771 22.64450073 18.04611206 C27.52225659 18.95975659 27.52225659 18.95975659 29.75 21.1875 C29.875 23.8125 29.875 23.8125 29.75 26.1875 C34.58973041 24.3648593 38.9991869 21.92572969 43.51953125 19.4296875 C50.00812144 16.93467942 56.25076651 18.28182793 62.796875 19.98046875 C64.36324458 20.36596424 65.92982299 20.75061193 67.49658203 21.13452148 C68.3124176 21.33729706 69.12825317 21.54007263 69.96881104 21.74899292 C86.05052859 25.72628153 102.04488164 28.68814828 118.48730469 30.69018555 C119.20995514 30.77955383 119.93260559 30.86892212 120.67715454 30.96099854 C122.61591382 31.19753177 124.55620531 31.42141114 126.49658203 31.64428711 C132.19861192 32.59633697 135.75642853 34.74904951 140.25 38.3125 C141.40305638 39.21689786 142.55674845 40.12048559 143.7109375 41.0234375 C144.34870117 41.52456055 144.98646484 42.02568359 145.64355469 42.54199219 C149.69519842 45.70704536 153.7860702 48.82086252 157.875 51.9375 C158.76952881 52.61965576 159.66405762 53.30181152 160.58569336 54.00463867 C167.34445725 59.1463751 174.15466311 64.21429816 181.00634766 69.23144531 C181.71710449 69.7519043 182.42786133 70.27236328 183.16015625 70.80859375 C183.8965332 71.33582031 184.63291016 71.86304688 185.39160156 72.40625 C187.75 74.1875 187.75 74.1875 190.30371094 76.453125 C199.13535236 83.95556908 207.67808573 85.53452368 218.875 87.3125 C220.58645067 87.61429164 222.29739633 87.91896188 224.0078125 88.2265625 C231.54921275 90.12126777 231.54921275 90.12126777 238.75 89.1875 C234.95955938 85.16419955 231.00444597 81.51733398 226.6875 78.0625 C222.13579277 74.40107159 217.82487616 70.55616485 213.5625 66.5625 C212.95994385 65.99797119 212.3573877 65.43344238 211.73657227 64.85180664 C211.15190186 64.30387451 210.56723145 63.75594238 209.96484375 63.19140625 C206.30478123 59.76161606 202.56865662 56.43961219 198.75 53.1875 C197.88503906 52.43210938 197.02007812 51.67671875 196.12890625 50.8984375 C159.81701306 19.74640164 117.17627906 13.83528685 70.92987061 12.2958374 C54.29030268 11.73985914 37.6907503 11.02726108 21.0871582 9.80126953 C12.28865428 9.16878612 3.56945652 8.95472842 -5.25 9.1875 Z M162.75 67.1875 C162.98902514 70.16976415 162.98902514 70.16976415 164.75 73.1875 C167.98308874 74.64881329 171.28529051 75.45876037 174.75 76.1875 C171.07442148 72.17777798 167.56033104 69.73414585 162.75 67.1875 Z M149.86035156 73.66772461 C147.53220519 74.24114243 145.37876127 74.39646584 142.984375 74.50390625 C142.09492188 74.54580078 141.20546875 74.58769531 140.2890625 74.63085938 C138.90847656 74.68983398 138.90847656 74.68983398 137.5 74.75 C136.56414062 74.79318359 135.62828125 74.83636719 134.6640625 74.88085938 C132.35951359 74.9866805 130.05486161 75.08876557 127.75 75.1875 C128.44101742 96.98909955 134.65528445 115.66968053 147.75 133.1875 C155.73801171 132.32444951 159.6638977 129.72330756 164.89453125 123.73046875 C171.96534481 114.56071238 175.6033171 104.90922869 176.078125 93.34765625 C175.5773003 90.05056028 174.61992812 87.96247333 172.75 85.1875 C169.54362257 83.86234176 166.56245769 83.04624045 163.19921875 82.28710938 C160.41225289 81.53677241 158.25040377 80.94433921 156.61328125 78.46826172 C155.78125 76.52734375 155.78125 76.52734375 154.75 73.1875 C151.90964375 73.06434746 151.90964375 73.06434746 149.86035156 73.66772461 Z M106.75 82.1875 C100.83917431 89.28769915 98.15068855 97.88301079 98.515625 107.09765625 C99.58080157 116.59548065 103.44152758 122.99767132 110.75 129.1875 C117.60940473 133.42520242 123.90030569 136.35657493 132 136.25 C132.89203125 136.24097656 133.7840625 136.23195312 134.703125 136.22265625 C135.71632813 136.20525391 135.71632813 136.20525391 136.75 136.1875 C136.75 132.6804269 136.02879457 131.80783643 134.125 128.9375 C124.28738297 112.88176655 121.00217764 94.61979592 118.75 76.1875 C114.26306539 76.1875 110.17660506 79.5439688 106.75 82.1875 Z M181.75 81.1875 C182.74 85.4775 183.73 89.7675 184.75 94.1875 C188.86418753 93.62954417 188.86418753 93.62954417 190.5 90.625 C190.9125 89.820625 191.325 89.01625 191.75 88.1875 C190.27312468 87.01793409 188.79343707 85.85191854 187.3125 84.6875 C186.07693359 83.71296875 186.07693359 83.71296875 184.81640625 82.71875 C183.04474471 81.0882712 183.04474471 81.0882712 181.75 81.1875 Z M199.75 92.1875 C198.35264182 94.34174056 198.35264182 94.34174056 197.75 97.1875 C199.50592746 100.15548075 199.50592746 100.15548075 201.75 103.1875 C204.3740534 110.1412415 204.97689672 116.79446568 202.1875 123.75 C199.19273733 129.77116015 195.33190946 134.61810406 189.5625 138.125 C184.27769542 139.59781439 179.22773568 139.87976204 173.75 140.1875 C172.265 146.1275 172.265 146.1275 170.75 152.1875 C172.07 153.363125 173.39 154.53875 174.75 155.75 C180.16566622 160.6202587 185.48077519 165.59319427 190.77319336 170.59692383 C193.79654711 173.44923212 196.82097802 176.28221307 199.9765625 178.98828125 C208.2279306 186.11446279 213.89076247 193.97187125 217.75 204.1875 C248.27509285 207.67608204 274.56668716 201.15780744 301.75 187.1875 C302.41 186.5275 303.07 185.8675 303.75 185.1875 C294.59976905 158.22035594 279.33748565 133.66622494 260.75 112.1875 C260.00363281 111.31222656 259.25726563 110.43695313 258.48828125 109.53515625 C256.93072977 107.72944143 255.36773443 105.93927528 253.75 104.1875 C253.32372314 103.68602951 252.89744629 103.18455902 252.45825195 102.66789246 C250.33052623 100.8239788 248.81016753 100.52588578 246.05078125 100.02075195 C245.09969482 99.84079178 244.1486084 99.6608316 243.16870117 99.47541809 C242.14365479 99.29403793 241.1186084 99.11265778 240.0625 98.92578125 C239.00844971 98.73026169 237.95439941 98.53474213 236.8684082 98.33329773 C233.49752241 97.71117542 230.12385886 97.10576757 226.75 96.5 C224.47637443 96.0810976 222.20293422 95.6611878 219.9296875 95.24023438 C217.76578954 94.84285299 215.60173203 94.44633919 213.4375 94.05078125 C212.41245361 93.8633284 211.38740723 93.67587555 210.33129883 93.48274231 C209.3802124 93.31223862 208.42912598 93.14173492 207.44921875 92.96606445 C206.61221436 92.81522903 205.77520996 92.66439362 204.9128418 92.50898743 C202.61986774 92.11398706 202.61986774 92.11398706 199.75 92.1875 Z M183.75 103.1875 C182.46126451 105.78922954 181.54492593 108.0716684 180.6875 110.8125 C179.27228248 115.1176155 177.89397197 119.12834406 175.55078125 123.02734375 C173.45532619 126.01038548 173.45532619 126.01038548 174 129.125 C174.2475 129.805625 174.495 130.48625 174.75 131.1875 C179.34708098 131.55526648 182.77935164 131.65415787 187 129.625 C192.27267772 124.9514902 195.49921597 120.68634024 195.95703125 113.47265625 C195.60633483 109.60176178 194.14890913 106.24065707 191.75 103.1875 C188.32937754 102.04729251 187.07012714 101.80972493 183.75 103.1875 Z M92.1796875 126.4140625 C89.64237773 129.56143582 89.62524998 133.25094373 89.75 137.1875 C91.1702973 140.45418379 93.01218356 142.9059863 95.75 145.1875 C99.87423032 146.56224344 103.6716303 147.11166827 107.76171875 145.29296875 C109.46039398 144.31786715 111.11007781 143.25846959 112.75 142.1875 C112.75 141.5275 112.75 140.8675 112.75 140.1875 C111.27138826 139.08672265 109.7395273 138.05709275 108.1875 137.0625 C103.73287991 134.06116022 100.44323246 130.89503247 97.125 126.69140625 C96.67125 126.19511719 96.2175 125.69882813 95.75 125.1875 C93.68059953 124.98231068 93.68059953 124.98231068 92.1796875 126.4140625 Z M165.75 161.1875 C158.34034967 170.79812575 154.07392898 181.05981044 150.41796875 192.5546875 C150.19437809 193.25431862 149.97078743 193.95394974 149.7404213 194.6747818 C147.63984161 201.27202324 145.60020231 207.88776991 143.58081055 214.51025391 C138.50742535 231.08994303 133.7391071 246.09782589 122.19160461 259.48487854 C113.44350128 269.81691294 106.5889642 281.7303053 99.55322266 293.24169922 C96.3049166 298.54823332 93.03165048 303.83903885 89.75 309.125 C88.81571167 310.64359619 88.81571167 310.64359619 87.86254883 312.19287109 C83.47116259 319.26030485 79.31260006 325.20882092 72.6875 330.375 C67.96018921 334.15302601 63.48175399 338.10636802 59.04760742 342.21679688 C55.01596943 345.95405286 50.91416284 349.59897144 46.75 353.1875 C47.41 353.5175 48.07 353.8475 48.75 354.1875 C50.67475499 353.46900269 52.56692212 352.66212258 54.4375 351.8125 C58.99228624 349.83382631 62.81026628 348.52430003 67.75 348.1875 C68.08 349.1775 68.41 350.1675 68.75 351.1875 C73.17669656 347.07231171 76.53456271 342.49843442 80 337.5625 C86.98285784 327.76365606 94.39331436 318.6125988 102.50390625 309.71484375 C104.81187598 307.11787607 107.00555863 304.45345987 109.1875 301.75 C112.23531659 297.97726871 115.38685516 294.36585046 118.6875 290.8125 C130.26792583 278.09708603 138.94504068 264.12747207 147.79882812 249.42431641 C149.59998898 246.43635462 151.41445892 243.45703091 153.234375 240.48046875 C154.28182744 238.75816355 155.32873778 237.0355285 156.375 235.3125 C156.83503418 234.56025146 157.29506836 233.80800293 157.76904297 233.03295898 C165.16962898 220.74429811 170.62516678 207.64698707 176.125 194.4375 C176.86811078 192.66129981 177.61159768 190.88525692 178.35546875 189.109375 C180.15798155 184.80388228 181.95541056 180.49630095 183.75 176.1875 C182.97277588 175.41245117 182.19555176 174.63740234 181.39477539 173.83886719 C179.7243501 172.16427856 178.06846892 170.47493799 176.43359375 168.765625 C175.69238281 167.99734375 174.95117188 167.2290625 174.1875 166.4375 C173.44371094 165.65890625 172.69992188 164.8803125 171.93359375 164.078125 C169.70168682 162.14566891 168.5550021 161.76224431 165.75 161.1875 Z M189.75 183.1875 C189.40332275 184.02708252 189.05664551 184.86666504 188.69946289 185.73168945 C179.2532811 208.56087306 169.82773182 230.48536973 156.51318359 251.3828125 C154.65529029 254.33815426 152.84740391 257.31954245 151.05078125 260.3125 C150.43678467 261.3344043 149.82278809 262.35630859 149.19018555 263.40917969 C148.01731314 265.36591262 146.84795336 267.32475727 145.68286133 269.28613281 C140.94416546 277.15463419 135.6304329 284.32772359 129.375 291.0625 C126.21656023 294.52072388 123.19451087 298.04533498 120.25 301.6875 C115.92906955 307.02467716 111.3726353 312.11182966 106.75 317.1875 C105.39026652 318.68245559 104.03561547 320.18205919 102.6875 321.6875 C102.11902344 322.3165625 101.55054688 322.945625 100.96484375 323.59375 C99.54792687 325.11860463 99.54792687 325.11860463 99.75 327.1875 C108.9079364 325.75860212 115.40368305 319.91537781 121.61328125 313.40234375 C124.12095402 310.80298276 126.78976595 308.47616025 129.52734375 306.125 C132.26993914 303.73426659 134.9483675 301.27638644 137.625 298.8125 C138.66397681 297.85797964 139.70303896 296.90355215 140.7421875 295.94921875 C141.24975586 295.48306152 141.75732422 295.0169043 142.28027344 294.53662109 C156.34403858 281.62692572 170.90506302 270.24856726 186.66796875 259.51953125 C198.33338502 251.5081012 207.49045463 242.79000752 211.0625 228.625 C213.22604759 216.90063259 210.96413635 206.32635404 204.75 196.1875 C201.01411573 191.19468271 196.74915708 186.90780295 191.75 183.1875 C191.09 183.1875 190.43 183.1875 189.75 183.1875 Z M296.375 198.75 C289.66693419 202.0143333 282.89095981 204.70871876 275.8125 207.0625 C274.96187988 207.34810791 274.11125977 207.63371582 273.23486328 207.92797852 C255.63495375 213.63212801 238.05339473 213.32817511 219.75 213.1875 C219.75 218.4675 219.75 223.7475 219.75 229.1875 C241.4190745 232.67114068 264.63449169 235.68485743 285.75 228.1875 C286.78511719 227.82527344 287.82023437 227.46304688 288.88671875 227.08984375 C296.96034512 223.97648456 304.33836663 219.60597374 311.75 215.1875 C311.47285156 214.07890625 311.19570313 212.9703125 310.91015625 211.828125 C309.5234375 206.28125 308.13671875 200.734375 306.75 195.1875 C302.72346875 195.1875 299.89191486 196.98127803 296.375 198.75 Z M311.75 225.1875 C309.27442903 226.32867784 306.90011678 227.5284501 304.5 228.8125 C289.29575493 236.66239669 274.86352513 240.57765369 257.6875 240.5 C255.88974121 240.49806641 255.88974121 240.49806641 254.05566406 240.49609375 C241.50956962 240.36475542 229.16019176 238.94701437 216.75 237.1875 C216.42128906 237.93773437 216.09257812 238.68796875 215.75390625 239.4609375 C209.97217084 251.90185326 202.00232638 259.60228866 190.75 267.1875 C177.88344477 275.90149937 165.91751784 285.05838869 154.515625 295.63671875 C152.30944053 297.67151883 150.08367739 299.66396238 147.8125 301.625 C144.26595486 304.69965555 140.8185436 307.87373997 137.375 311.0625 C136.2474005 312.10417172 135.11979637 313.14583842 133.9921875 314.1875 C131.9919474 316.03604641 129.99782666 317.89038563 128.0078125 319.75 C119.6197923 327.4847476 111.26278142 332.74658673 100.75 337.1875 C104.82761831 342.10155283 109.14656131 346.61412456 113.69140625 351.09765625 C115.89477193 353.3344696 117.87899868 355.66571561 119.75 358.1875 C125.91861592 356.21649136 131.91790589 353.98212011 137.89453125 351.4921875 C138.74440109 351.14044464 139.59427094 350.78870178 140.46989441 350.42630005 C142.26303533 349.68319143 144.05553269 348.93852818 145.84741211 348.19238281 C148.5155541 347.08203652 151.18629626 345.97814597 153.85742188 344.875 C162.81063657 341.16510612 171.7179355 337.36488468 180.5625 333.40234375 C181.36585281 333.04361176 182.16920563 332.68487976 182.99690247 332.3152771 C196.51230074 326.20797549 208.60075159 318.49817719 220.56591797 309.77880859 C222.7686884 308.17388375 224.97888294 306.57972839 227.19140625 304.98828125 C231.71746711 301.73034447 236.2341873 298.45961975 240.75 295.1875 C267.50742348 275.80878826 267.50742348 275.80878826 270.75 274.1875 C272.22592958 276.74577794 272.75598002 278.03116525 272.640625 281.046875 C273.40876271 284.25021229 273.40876271 284.25021229 275.68579102 285.41748047 C278.60745997 286.68575479 281.55406327 287.76590393 284.5625 288.8125 C285.70452881 289.22927002 286.84655762 289.64604004 288.02319336 290.07543945 C291.92080597 291.48083483 295.83250137 292.8389035 299.75 294.1875 C301.20251375 294.69145433 302.65498688 295.19552576 304.10742188 295.69970703 C346.58751227 310.47330676 346.58751227 310.47330676 390.75 318.1875 C390.42 321.1575 390.09 324.1275 389.75 327.1875 C388.76 327.1875 387.77 327.1875 386.75 327.1875 C386.75 329.8275 386.75 332.4675 386.75 335.1875 C398.35053787 338.47431906 408.68655257 336.77562765 419.75 332.1875 C422.96984387 330.52788767 422.96984387 330.52788767 423.38183594 327.63720703 C423.49817383 326.58388184 423.61451172 325.53055664 423.734375 324.4453125 C423.86457031 323.29675781 423.99476563 322.14820313 424.12890625 320.96484375 C424.25136719 319.75957031 424.37382812 318.55429687 424.5 317.3125 C424.63792969 316.11496094 424.77585937 314.91742188 424.91796875 313.68359375 C426.15093823 305.66722208 426.15093823 305.66722208 423.47265625 298.36328125 C406.19202082 278.96830925 384.02983886 269.45616075 360.6875 259.3125 C358.87343438 258.51994805 357.05955227 257.72697595 355.24584961 256.93359375 C347.51950431 253.55657945 339.78571756 250.19734913 332.0390625 246.8671875 C330.96148682 246.40296387 329.88391113 245.93874023 328.77368164 245.46044922 C326.85822694 244.63703584 324.94086166 243.81804672 323.02124023 243.00439453 C321.79062866 242.47628174 321.79062866 242.47628174 320.53515625 241.9375 C319.84301025 241.64359375 319.15086426 241.3496875 318.43774414 241.046875 C316.75 240.1875 316.75 240.1875 314.75 238.1875 C314.36533818 235.07086503 314.24291013 231.97593551 314.09375 228.83984375 C313.9803125 227.96457031 313.866875 227.08929688 313.75 226.1875 C312.76 225.6925 312.76 225.6925 311.75 225.1875 Z M83.75 346.1875 C81.52374717 349.02586258 79.56505527 352.04006325 77.58789062 355.0546875 C74.29853784 359.88252497 70.79954405 363.07181315 65.1875 365.125 C61.93526468 365.20839065 60.42051741 363.96784494 57.75 362.1875 C54.46132218 361.03812371 53.76789881 361.18142719 50.25 362.375 C41.57893492 367.02658071 34.63186873 375.98724253 28.32421875 383.39453125 C26.16541177 385.85332134 23.83333895 388.11457782 21.5 390.40625 C19.66757513 392.27139674 17.95646865 394.20677746 16.25 396.1875 C13.46569792 399.4192792 10.53741294 402.42583532 7.4921875 405.41015625 C5.69169982 407.24697665 4.03598749 409.16166686 2.375 411.125 C-4.47698937 419.02066987 -12.79203466 425.28582853 -21.015625 431.671875 C-21.56202637 432.10250244 -22.10842773 432.53312988 -22.67138672 432.97680664 C-24.12560225 434.09209504 -25.63528705 435.13405059 -27.1484375 436.16796875 C-29.4867573 438.02729616 -29.4867573 438.02729616 -29.7734375 440.87890625 C-29.72445313 441.82636719 -29.67546875 442.77382813 -29.625 443.75 C-29.59148438 444.70003906 -29.55796875 445.65007812 -29.5234375 446.62890625 C-29.32961099 449.30470919 -29.32961099 449.30470919 -28.25 452.1875 C-19.18485304 452.42918773 -19.18485304 452.42918773 -10.25 451.1875 C-8.18308413 448.08712619 -8.05309957 447.58107285 -8.09375 444.1171875 C-7.75405695 437.08350188 -6.99410683 430.8945464 -1.79150391 425.76220703 C4.58693553 420.87918621 11.52540374 416.90799579 18.53222656 413.00634766 C22.75202862 410.62110294 26.77865342 407.99557201 30.8125 405.3125 C32.14191174 404.4523874 33.47262327 403.59428016 34.8046875 402.73828125 C37.56779924 400.95587375 40.32137252 399.15965245 43.0703125 397.35546875 C60.1613111 386.16166545 77.66637005 376.77305609 96.5 368.8125 C97.79441769 368.26206398 99.08868932 367.71128435 100.3828125 367.16015625 C103.50379811 365.83257282 106.62619043 364.50842153 109.75 363.1875 C109.75 358.78854877 106.95378899 356.82242336 104.0625 353.8125 C103.26682617 352.96558594 103.26682617 352.96558594 102.45507812 352.1015625 C101.40124655 350.98437173 100.34026718 349.87387675 99.27197266 348.77050781 C97.85567075 347.29740842 96.47876921 345.78670507 95.10546875 344.2734375 C90.5352427 340.22617264 87.57883406 342.53987794 83.75 346.1875 Z M415.375 342.625 C407.8607542 344.92041803 400.35807634 345.20610923 392.546875 345.19458008 C391.64807617 345.19355789 390.74927734 345.19253571 389.82324219 345.19148254 C388.7969873 345.18951118 388.7969873 345.18951118 387.75 345.1875 C387.83769653 346.21321106 387.92539307 347.23892212 388.01574707 348.29571533 C388.84513673 358.00419038 389.66916301 367.71310803 390.48806 377.42247391 C390.90914139 382.41306469 391.33205244 387.40348577 391.75927734 392.39355469 C392.17218652 397.2172308 392.5801165 402.04130538 392.98472595 406.86568451 C393.13925676 408.69803374 393.29552342 410.53023752 393.45362854 412.3622818 C395.67105107 438.0925794 395.67105107 438.0925794 393.75 445.1875 C393.22947017 449.73622157 393.22947017 449.73622157 394.76171875 453.9375 C396.92524353 456.6402817 398.43805288 458.08351763 401.75 459.1875 C403.36095858 459.27472452 404.97531016 459.30517272 406.58862305 459.30102539 C407.5694133 459.30094986 408.55020355 459.30087433 409.56071472 459.30079651 C411.14521172 459.29305458 411.14521172 459.29305458 412.76171875 459.28515625 C413.84508011 459.2837413 414.92844147 459.28232635 416.04463196 459.28086853 C419.50894925 459.27526559 422.9732022 459.26271258 426.4375 459.25 C428.78450428 459.24498538 431.13150956 459.24042241 433.47851562 459.23632812 C439.23569908 459.22529521 444.99284494 459.2085542 450.75 459.1875 C451.08 457.5375 451.41 455.8875 451.75 454.1875 C447.74143729 451.53756687 443.62703513 449.99539269 439.078125 448.55859375 C437.59503971 448.0762099 436.11196717 447.59378689 434.62890625 447.11132812 C432.30325037 446.3631788 429.976797 445.61757822 427.64990234 444.87329102 C425.39475215 444.14958808 423.14264123 443.41697958 420.890625 442.68359375 C419.83914276 442.35227699 419.83914276 442.35227699 418.76641846 442.01426697 C417.0747231 441.4619956 415.40895075 440.83148702 413.75 440.1875 C409.52837133 431.74424267 414.60667081 413.08558642 415.59765625 403.66796875 C415.7759158 401.94927805 415.95384198 400.23055274 416.13145447 398.51179504 C416.593946 394.04287341 417.0600091 389.57433264 417.52716064 385.105896 C418.27894989 377.91075024 419.02606804 370.71512054 419.77148247 363.5193119 C420.03148423 361.01582562 420.29358631 358.51256562 420.55592346 356.00932312 C420.71451438 354.48433114 420.87304148 352.95933252 421.03149414 351.43432617 C421.14134644 350.39417358 421.14134644 350.39417358 421.25341797 349.33300781 C421.5359643 346.59923547 421.75 343.93851577 421.75 341.1875 C419.3511145 341.1875 417.65038855 341.85549157 415.375 342.625 Z " fill="#000000" transform="translate(44.25,21.8125)"/>
</svg>
