<?xml version="1.0" standalone="no"?>
<!DOCTYPE svg PUBLIC "-//W3C//DTD SVG 20010904//EN"
 "http://www.w3.org/TR/2001/REC-SVG-20010904/DTD/svg10.dtd">
<svg version="1.0" xmlns="http://www.w3.org/2000/svg"
 width="512.000000pt" height="512.000000pt" viewBox="0 0 512.000000 512.000000"
 preserveAspectRatio="xMidYMid meet">

<g transform="translate(0.000000,512.000000) scale(0.100000,-0.100000)"
fill="#74613c" stroke="none">
<path d="M205 5102 c-99 -34 -174 -117 -195 -215 -8 -37 -10 -701 -8 -2357 l3
-2305 21 -46 c28 -60 93 -125 153 -153 l46 -21 2065 0 2065 0 46 21 c60 28
125 93 153 153 19 42 21 63 21 244 l0 199 -34 30 c-28 25 -39 29 -69 24 -20
-3 -47 -17 -61 -31 -26 -25 -26 -29 -31 -206 l-5 -181 -33 -29 -32 -29 -2025
2 -2025 3 -27 28 -28 27 0 2300 0 2300 28 27 27 28 2025 3 2025 2 32 -29 33
-29 5 -306 5 -306 26 -25 c14 -14 41 -28 61 -31 30 -5 41 -1 69 24 l34 30 0
324 c0 309 -1 325 -21 369 -28 60 -93 125 -153 153 l-46 21 -2050 2 c-1924 2
-2053 1 -2100 -15z"/>
<path d="M545 4631 c-11 -5 -29 -19 -40 -31 -20 -22 -20 -36 -20 -1106 l0
-1084 28 -27 c40 -41 99 -39 138 5 l29 32 0 1010 0 1010 1610 0 1610 0 0 -95
c0 -89 2 -96 28 -125 17 -19 40 -33 63 -36 31 -5 42 -1 70 24 l34 30 0 172 0
172 -33 29 -32 29 -1733 -1 c-952 0 -1741 -4 -1752 -8z"/>
<path d="M3751 4013 c-43 -15 -125 -88 -166 -147 -17 -24 -30 -30 -101 -41
-94 -15 -134 -33 -187 -84 -54 -50 -76 -99 -87 -189 -9 -69 -13 -79 -41 -102
-120 -94 -155 -147 -166 -250 l-6 -60 -879 0 c-628 0 -886 -3 -901 -11 -75
-39 -75 -139 0 -178 15 -8 280 -11 927 -11 498 0 906 -2 906 -5 0 -3 -10 -25
-22 -48 -23 -44 -31 -144 -15 -199 l7 -28 -890 0 c-637 0 -898 -3 -913 -11
-75 -39 -75 -139 0 -178 15 -8 299 -11 1001 -11 l980 0 6 -22 c3 -13 6 -39 6
-59 0 -52 54 -152 101 -190 50 -39 127 -69 182 -69 55 -1 79 -15 116 -70 l31
-45 0 -482 0 -483 29 -32 c24 -27 36 -33 70 -33 40 0 47 6 181 140 l140 140
132 -132 c73 -73 144 -136 159 -141 37 -15 76 -3 104 30 l25 30 0 481 0 482
31 45 c37 55 61 69 116 70 55 0 132 30 182 69 50 40 101 138 101 196 0 69 17
101 72 136 128 82 172 243 104 377 -33 64 -32 76 1 148 23 49 28 72 27 134 -1
116 -32 167 -163 270 -28 23 -32 33 -41 103 -11 88 -27 126 -79 180 -50 53
-100 77 -195 92 -71 11 -84 17 -101 41 -47 67 -122 131 -174 149 -73 24 -158
17 -238 -19 l-63 -29 -62 29 c-77 35 -179 42 -247 17z m185 -210 c45 -20 75
-27 124 -27 49 0 79 7 124 27 78 36 110 35 144 -3 118 -134 173 -170 259 -170
44 0 99 -23 111 -47 5 -10 12 -45 16 -78 10 -85 44 -154 101 -201 100 -82 108
-92 102 -127 -2 -18 -17 -61 -32 -97 -23 -54 -27 -74 -22 -125 3 -34 16 -83
31 -115 14 -30 26 -66 26 -78 0 -24 -31 -59 -108 -119 -52 -42 -89 -119 -98
-204 -9 -90 -35 -119 -107 -119 -47 0 -122 -24 -167 -54 -21 -13 -57 -51 -81
-82 -58 -76 -82 -82 -170 -44 -92 41 -166 41 -258 0 -88 -38 -112 -32 -170 44
-24 31 -60 69 -81 82 -45 30 -120 54 -166 54 -43 0 -79 17 -92 44 -6 11 -15
54 -21 94 -17 107 -32 131 -160 243 -49 43 -51 63 -15 139 15 32 28 81 31 115
5 51 1 71 -22 125 -15 36 -30 79 -32 97 -6 35 2 45 102 127 57 47 91 116 101
201 4 33 11 68 16 78 12 24 67 47 111 47 86 0 141 36 259 170 34 38 66 39 144
3z m201 -1857 c26 -13 69 -27 96 -30 l47 -7 0 -296 0 -297 -83 82 c-125 121
-149 121 -274 0 l-83 -82 0 296 0 296 43 6 c23 4 65 17 92 30 64 31 102 32
162 2z"/>
<path d="M4239 3093 l-179 -177 -79 77 c-69 68 -83 77 -116 77 -47 0 -71 -13
-91 -52 -29 -57 -15 -83 119 -215 132 -130 157 -144 211 -118 18 9 128 112
244 229 211 212 212 213 212 256 0 63 -37 100 -98 100 -44 0 -46 -1 -223 -177z"/>
<path d="M1115 3931 c-64 -27 -81 -110 -32 -158 40 -41 99 -39 138 5 37 42 38
82 2 122 -30 32 -75 45 -108 31z"/>
<path d="M1480 3928 c-14 -7 -33 -30 -43 -51 -18 -36 -18 -38 0 -74 30 -62 37
-63 340 -61 l273 3 27 28 c38 38 38 96 0 134 l-27 28 -273 3 c-204 2 -278 -1
-297 -10z"/>
<path d="M544 2171 c-32 -14 -64 -60 -64 -92 0 -17 11 -41 29 -61 60 -67 166
-28 166 62 0 66 -72 116 -131 91z"/>
<path d="M1838 2165 c-34 -19 -48 -44 -48 -87 0 -41 20 -71 57 -87 21 -8 189
-11 625 -9 l598 3 27 27 c38 39 38 97 0 136 l-27 27 -603 2 c-518 2 -606 0
-629 -12z"/>
<path d="M524 1775 c-44 -30 -45 -41 -42 -652 l3 -583 28 -27 27 -28 1745 -3
1744 -2 33 29 33 29 0 152 0 152 -34 30 c-28 25 -39 29 -70 24 -23 -3 -46 -17
-63 -36 -25 -27 -28 -38 -28 -105 l0 -75 -1610 0 -1610 0 0 515 c0 551 -1 559
-49 585 -28 15 -83 12 -107 -5z"/>
<path d="M3000 1608 c-14 -5 -73 -57 -132 -116 l-108 -107 -77 77 c-83 82
-129 108 -190 108 -58 -1 -112 -31 -180 -103 -54 -55 -63 -71 -63 -101 0 -48
24 -82 66 -96 46 -16 78 -2 134 55 l44 45 77 -75 c83 -81 126 -105 189 -105
68 0 109 26 232 147 131 129 148 160 125 216 -8 19 -20 38 -26 42 -26 15 -68
22 -91 13z"/>
</g>
</svg>
