<?xml version="1.0" standalone="no"?>
<!DOCTYPE svg PUBLIC "-//W3C//DTD SVG 20010904//EN"
 "http://www.w3.org/TR/2001/REC-SVG-20010904/DTD/svg10.dtd">
<svg version="1.0" xmlns="http://www.w3.org/2000/svg"
 width="512.000000pt" height="512.000000pt" viewBox="0 0 512.000000 512.000000"
 preserveAspectRatio="xMidYMid meet">

<g transform="translate(0.000000,512.000000) scale(0.100000,-0.100000)"
fill="#dc3545" stroke="none">
<path d="M3284 3986 c-55 -17 -119 -63 -174 -122 -25 -27 -153 -191 -285 -364
-237 -310 -303 -390 -323 -390 -16 0 -85 83 -350 415 -131 165 -264 323 -294
351 -105 100 -185 119 -271 64 -89 -56 -134 -150 -124 -260 8 -96 49 -156 374
-551 320 -389 344 -426 324 -495 -4 -16 -62 -117 -128 -225 -235 -381 -499
-842 -569 -993 -39 -83 -30 -162 24 -219 79 -84 217 -95 312 -26 62 45 279
387 595 937 55 96 107 178 116 182 10 6 23 4 37 -6 30 -21 173 -223 279 -394
211 -339 375 -589 426 -647 42 -48 99 -73 167 -73 136 0 260 119 260 249 0 65
-19 103 -106 212 -158 199 -621 846 -686 959 -57 99 -57 131 0 231 24 42 134
193 244 335 340 439 390 517 396 608 3 52 0 69 -25 115 -49 93 -134 134 -219
107z"/>
</g>
</svg>
