<?xml version="1.0" encoding="UTF-8"?>
<svg version="1.1" xmlns="http://www.w3.org/2000/svg" width="512" height="512">
<path d="M0 0 C111.87 0 223.74 0 339 0 C339.33 41.91 339.66 83.82 340 127 C360.79 106.21 360.79 106.21 382 85 C393.99941219 75.40047025 403.34409832 70.0104439 418.84765625 71.22265625 C431.22542635 73.01577906 441.26057502 79.52062303 448.85546875 89.41796875 C455.99559169 100.50719672 457.59704456 112.34111216 454.875 125.125 C452.4104527 135.86555798 445.35548976 141.7304291 436.51245117 147.49560547 C434.34697236 148.97133803 432.18664414 150.45219908 430.0335083 151.94566345 C429.46851685 152.33702132 428.90352539 152.72837919 428.32141298 153.13159639 C416.07338407 161.67947888 404.53112238 171.1722121 393.1875 180.875 C392.55582491 181.41387549 391.92414983 181.95275098 391.27333307 182.50795603 C357.39495973 211.56703364 337.14641798 241.0803343 333.54338074 286.38537598 C331.91877216 310.40024401 332.10365217 334.39685375 332.9375 358.4375 C332.9786013 359.64135943 333.0197026 360.84521887 333.06204939 362.08555889 C333.82387094 383.8163608 334.88556302 405.53056564 336.64764404 427.20472717 C336.72901716 428.21219561 336.81039027 429.21966404 336.89422923 430.25766182 C337.27697983 434.94326919 337.68006834 439.62552727 338.12288189 444.30584526 C339.50124022 459.55950868 338.3404524 473.22740998 328.62695312 485.7734375 C318.69221855 497.52279508 307.31359034 503.92466512 292 506 C287.85449098 506.26214173 283.72490306 506.27488404 279.57206726 506.26069641 C278.36789856 506.26452196 277.16372986 506.26834751 275.92307121 506.27228898 C272.61141138 506.28076851 269.29997576 506.280406 265.98832285 506.27610838 C262.40469955 506.27362778 258.82110162 506.28267182 255.23748779 506.29014587 C248.22847665 506.30285822 241.21950389 506.30469089 234.21048316 506.30234561 C228.50958365 506.30055833 222.80869574 506.30232087 217.10779762 506.30657005 C216.29459857 506.30716524 215.48139951 506.30776043 214.64355806 506.30837366 C212.99122017 506.30958548 211.33888228 506.31079962 209.6865444 506.31201603 C194.21040985 506.32287832 178.73429711 506.32073536 163.25816134 506.31463119 C149.12276443 506.30946377 134.98743647 506.32071519 120.85205319 506.33972941 C106.31289128 506.35913575 91.77376195 506.36735887 77.23458701 506.36360615 C69.0819683 506.36169828 60.92940825 506.36414119 52.77680016 506.37832069 C45.83593088 506.39027121 38.89515637 506.39159847 31.9542857 506.37953053 C28.41832299 506.37366734 24.8825333 506.37247072 21.34658241 506.38453293 C-18.62989365 506.51128056 -18.62989365 506.51128056 -34.93359375 491.19921875 C-45.76269244 479.67410994 -50.36301356 466.76433321 -50.1953125 451.15625 C-50.19329834 450.2600293 -50.19128418 449.36380859 -50.18920898 448.44042969 C-50.17882966 445.12690026 -50.15090778 441.8134444 -50.125 438.5 C-50.08375 431.075 -50.0425 423.65 -50 416 C-33.5 416 -17 416 0 416 C0 278.72 0 141.44 0 0 Z M24 24 C24 153.36 24 282.72 24 416 C101.55 416 179.1 416 259 416 C259 430.52 259 445.04 259 460 C263.08604148 470.21510369 265.79671854 475.09326403 275.1875 479.9375 C282.35889214 482.87659514 288.83324341 483.43786011 296.21484375 480.890625 C303.95145345 477.33312338 309.23725925 473.1494622 312.8125 465.375 C314.71542917 459.966675 315.14381641 455.08024931 315.12025452 449.37541199 C315.12110894 448.61568268 315.12196337 447.85595337 315.12284368 447.07320195 C315.12448843 444.53209424 315.11899358 441.99105279 315.11352539 439.44995117 C315.11324328 437.62657676 315.11340173 435.80320223 315.1139679 433.97982788 C315.11425492 429.03192471 315.10837344 424.08404576 315.10139394 419.13614821 C315.09514469 413.96449007 315.09455535 408.79283138 315.09336853 403.62117004 C315.09025986 393.82881624 315.0820527 384.0364736 315.07201904 374.24412471 C315.06084352 363.09549203 315.05534382 351.94685883 315.05032361 340.79822195 C315.03986972 317.86547511 315.02227923 294.93273818 315 272 C310.38198105 275.84993808 306.03159354 279.84873885 301.84033203 284.15722656 C300.65686631 285.3636629 299.4733624 286.57006178 298.28982544 287.77642822 C297.67384617 288.40625862 297.0578669 289.03608902 296.42322159 289.68500519 C293.12459768 293.05287804 289.80886493 296.40386504 286.49609375 299.7578125 C282.29741931 304.01043863 278.10402927 308.26789546 273.92919922 312.54394531 C270.53883983 316.01560207 267.13148516 319.46974903 263.71224594 322.91295624 C262.41820211 324.22238434 261.13045619 325.53806902 259.84936905 326.86017609 C258.05510584 328.71023503 256.23987976 330.53707948 254.41845703 332.36035156 C253.90076752 332.90477905 253.383078 333.44920654 252.84970093 334.01013184 C248.65994861 338.13232092 244.74181491 339.18465197 239 340 C237.42856232 340.26605797 237.42856232 340.26605797 235.82537842 340.53749084 C234.86561096 340.67215256 233.90584351 340.80681427 232.91699219 340.94555664 C231.81264832 341.1023439 230.70830444 341.25913116 229.57049561 341.42066956 C228.40770081 341.58220016 227.24490601 341.74373077 226.046875 341.91015625 C224.82848938 342.08252304 223.61010376 342.25488983 222.35479736 342.43247986 C218.48699463 342.9791668 214.61854682 343.52110583 210.75 344.0625 C206.86728076 344.60820676 202.98471028 345.15493484 199.10235596 345.70323181 C196.69304604 346.04325652 194.28350776 346.38166794 191.87371826 346.71827698 C190.78198303 346.87191208 189.6902478 347.02554718 188.56542969 347.18383789 C187.6088446 347.31770401 186.65225952 347.45157013 185.66668701 347.5894928 C183.09197957 347.98584075 180.54980943 348.46805151 178 349 C178.20496094 347.90042969 178.40992188 346.80085938 178.62109375 345.66796875 C178.89348279 344.1745254 179.16560362 342.68103312 179.4375 341.1875 C179.57220703 340.46884766 179.70691406 339.75019531 179.84570312 339.00976562 C180.93719606 332.96662179 181.43776329 327.18460386 182 321 C143.06 321 104.12 321 64 321 C64 313.08 64 305.16 64 297 C104.26 297 144.52 297 186 297 C186.99 291.06 187.98 285.12 189 279 C191.83074822 275.10225502 193.65051157 272.85049571 197.1875 269.9375 C198.66064394 268.61382381 200.13332845 267.28963606 201.60546875 265.96484375 C202.25668701 265.4143335 202.90790527 264.86382324 203.57885742 264.29663086 C204.04783447 263.86874268 204.51681152 263.44085449 205 263 C205 262.67 205 262.34 205 262 C158.47 262 111.94 262 64 262 C64 254.08 64 246.16 64 238 C66.00193924 238.07772141 68.00387848 238.15544281 70.06648254 238.23551941 C89.08060755 238.95631146 108.0929095 239.47407106 127.11771107 239.81342602 C136.89630236 239.9925579 146.66466834 240.23664157 156.43676758 240.64038086 C203.81923474 244.85730716 203.81923474 244.85730716 245.82775021 227.76555729 C253.45357871 220.47211017 259.81223881 212.17582735 265 203 C265 202.67 265 202.34 265 202 C198.67 202 132.34 202 64 202 C64 194.08 64 186.16 64 178 C133.63 178 203.26 178 275 178 C275 182.62 275 187.24 275 192 C289.1388539 179.88098237 301.83227852 166.16772148 315 153 C315 110.43 315 67.86 315 24 C218.97 24 122.94 24 24 24 Z M392 109 C393.58431453 112.90851199 396.26635095 115.52367356 399.2265625 118.421875 C399.98808121 119.17914886 399.98808121 119.17914886 400.76498413 119.95172119 C402.38033842 121.55592096 404.00252209 123.15300856 405.625 124.75 C406.72441698 125.83938107 407.82338059 126.9292199 408.921875 128.01953125 C411.6093602 130.68501885 414.30299021 133.34415143 417 136 C427.28078323 127.73274315 427.28078323 127.73274315 432.28515625 116.0078125 C432.71280934 109.66977442 430.93898736 104.96352196 427 100 C413.96007728 88.51094188 401.49214311 99.11235093 392 109 Z M370.12816328 130.74275541 C369.29792413 131.57736382 369.29792413 131.57736382 368.45091248 132.42883301 C367.86611006 133.012781 367.28130765 133.59672898 366.67878395 134.19837236 C364.70330674 136.17219141 362.73144456 138.1495838 360.75952148 140.12695312 C359.35073957 141.53601686 357.94173791 142.94486093 356.53253174 144.35350037 C352.69369352 148.19205042 348.85795694 152.03368664 345.02274585 155.87586021 C341.01930711 159.8855295 337.01305622 163.89238694 333.00709534 167.89953613 C325.41548398 175.49426169 317.82642639 183.09153386 310.23826987 190.68971109 C301.60192253 199.33721681 292.96275209 207.98189976 284.32333648 216.62633991 C266.54573493 234.41440786 248.77170394 252.20604001 231 270 C231.94856003 271.11455232 232.89825421 272.22813945 233.84841919 273.34132385 C234.377157 273.96155709 234.90589481 274.58179033 235.45065498 275.22081852 C237.45643763 277.52414754 239.57541963 279.68791675 241.7421875 281.83984375 C242.58007812 282.67451172 243.41796875 283.50917969 244.28125 284.36914062 C245.1371875 285.21669922 245.993125 286.06425781 246.875 286.9375 C247.75414062 287.81212891 248.63328125 288.68675781 249.5390625 289.58789062 C251.6904346 291.72757048 253.84411792 293.86486597 256 296 C260.0595972 294.38190358 262.78013632 291.49333059 265.79595947 288.44454956 C266.3710745 287.87114338 266.94618953 287.2977372 267.53873229 286.70695508 C269.46582859 284.78315466 271.38568669 282.85229003 273.30566406 280.92138672 C274.68511731 279.54136938 276.06501099 278.16179219 277.4453125 276.78262329 C281.19324962 273.03526076 284.93498172 269.28175702 288.67564869 265.52713919 C292.58518719 261.60511113 296.50037772 257.6887337 300.41497803 253.77175903 C307.82787875 246.35263833 315.23566581 238.92843341 322.64163947 231.50239861 C331.07293844 223.04875679 339.50990677 214.60078293 347.94736147 206.15328574 C365.30456681 188.77516666 382.65462291 171.38992448 400 154 C398.21986838 150.1690772 395.79143081 147.51718839 392.80859375 144.578125 C392.30328629 144.07327576 391.79797882 143.56842651 391.27735901 143.04827881 C390.21307011 141.98700128 389.14636151 140.92814545 388.07739258 139.87158203 C386.4344325 138.24696675 384.79970383 136.61440222 383.16601562 134.98046875 C382.13068068 133.95004601 381.0948893 132.92008165 380.05859375 131.890625 C379.56693222 131.40007629 379.07527069 130.90952759 378.56871033 130.40411377 C374.32093309 126.21603564 374.32853766 126.55910343 370.12816328 130.74275541 Z M213 288 C209.81313191 291.24251421 209.3937105 294.31841397 208.83203125 298.734375 C208.66123047 300.02988281 208.49042969 301.32539063 208.31445312 302.66015625 C208.14687277 304.02340524 207.97955841 305.38668695 207.8125 306.75 C207.63457374 308.12904994 207.45554905 309.50795864 207.27539062 310.88671875 C206.83942969 314.25657897 206.41475341 317.62747494 206 321 C210.896232 320.44280169 215.78961643 319.86641013 220.68164062 319.2734375 C222.83321367 319.01967151 224.98600816 318.78864054 227.140625 318.5625 C228.98914063 318.3459375 228.98914063 318.3459375 230.875 318.125 C231.98617188 318.00382812 233.09734375 317.88265625 234.2421875 317.7578125 C237.5511373 316.84855434 238.12515913 315.75744341 240 313 C236.48259521 309.43326807 232.95875538 305.87307049 229.42871094 302.31884766 C228.22801105 301.10807151 227.0291098 299.89550899 225.83203125 298.68115234 C224.11404252 296.93898662 222.38975125 295.20328456 220.6640625 293.46875 C220.12754059 292.92190552 219.59101868 292.37506104 219.03823853 291.81164551 C217.72957713 290.50258902 216.36903374 289.24578094 215 288 C214.34 288 213.68 288 213 288 Z M-26 440 C-26.74322681 459.05060963 -26.74322681 459.05060963 -18.359375 473.9140625 C-11.25677103 480.65157935 -3.05683073 482.59962196 6.45936584 482.48101807 C7.98385673 482.48614462 7.98385673 482.48614462 9.53914541 482.49137473 C12.92490808 482.49793283 16.30986772 482.47601111 19.69555664 482.45410156 C22.13035056 482.45297264 24.56514584 482.45360782 26.99993896 482.45587158 C32.23169191 482.45678074 37.46326523 482.44547843 42.69496346 482.42292023 C50.25897592 482.39032682 57.82289204 482.37998575 65.38696712 482.37496826 C77.66094635 482.36622707 89.93481889 482.33964356 102.20874023 482.30175781 C114.12735462 482.26500719 126.04593996 482.2367104 137.96459961 482.21972656 C138.70002301 482.21867567 139.4354464 482.21762477 140.19315536 482.21654204 C143.88278506 482.21132165 147.57241498 482.20626688 151.26204503 482.20129442 C181.84143973 482.15986904 212.42070501 482.08915417 243 482 C242.66226562 481.31035156 242.32453125 480.62070312 241.9765625 479.91015625 C241.53054688 478.97042969 241.08453125 478.03070313 240.625 477.0625 C240.18414062 476.14597656 239.74328125 475.22945313 239.2890625 474.28515625 C234.81447402 462.88173531 235.56999568 452.53990503 235 440 C148.87 440 62.74 440 -26 440 Z " fill="#000000" transform="translate(53,3)"/>
<path d="M0 0 C69.63 0 139.26 0 211 0 C211 7.92 211 15.84 211 24 C141.37 24 71.74 24 0 24 C0 16.08 0 8.16 0 0 Z " fill="#000000" transform="translate(117,122)"/>
<path d="M0 0 C36.63 0 73.26 0 111 0 C111 7.92 111 15.84 111 24 C74.37 24 37.74 24 0 24 C0 16.08 0 8.16 0 0 Z " fill="#000000" transform="translate(117,359)"/>
<path d="M0 0 C36.63 0 73.26 0 111 0 C111 7.92 111 15.84 111 24 C74.37 24 37.74 24 0 24 C0 16.08 0 8.16 0 0 Z " fill="#000000" transform="translate(117,63)"/>
</svg>
