<?xml version="1.0" standalone="no"?>
<!DOCTYPE svg PUBLIC "-//W3C//DTD SVG 20010904//EN"
 "http://www.w3.org/TR/2001/REC-SVG-20010904/DTD/svg10.dtd">
<svg version="1.0" xmlns="http://www.w3.org/2000/svg"
 width="512.000000pt" height="512.000000pt" viewBox="0 0 512.000000 512.000000"
 preserveAspectRatio="xMidYMid meet">

<g transform="translate(0.000000,512.000000) scale(0.100000,-0.100000)"
fill="#74613c" stroke="none">
<path d="M1591 5106 c-90 -50 -50 -186 55 -186 38 0 94 59 94 100 0 23 -10 42
-34 66 -37 37 -73 43 -115 20z"/>
<path d="M2480 4897 c-190 -68 -322 -205 -387 -402 -25 -74 -27 -93 -27 -250
0 -141 4 -186 22 -265 32 -136 30 -202 -10 -280 -34 -69 -99 -138 -340 -363
-157 -146 -240 -250 -303 -380 -158 -326 -114 -751 114 -1100 60 -92 206 -246
292 -308 l60 -44 -630 -5 c-600 -5 -630 -6 -650 -24 -35 -32 -41 -81 -41 -358
l0 -268 -145 0 c-160 0 -192 -8 -213 -55 -17 -37 -17 -703 0 -740 27 -59 -133
-55 2338 -55 2471 0 2311 -4 2338 55 17 37 17 703 0 740 -21 47 -53 55 -213
55 l-145 0 0 268 c0 277 -6 326 -41 358 -20 18 -50 19 -651 24 l-630 5 64 47
c80 58 210 193 271 279 154 217 235 491 224 749 -9 191 -73 440 -124 480 -41
32 -89 27 -126 -15 -106 -118 -124 -133 -176 -144 -98 -21 -195 21 -239 104
-20 38 -20 147 0 196 9 20 44 77 78 127 117 173 129 295 45 479 -59 127 -121
209 -293 386 -181 187 -215 236 -252 367 -11 41 -23 124 -27 184 -6 99 -9 112
-32 138 -36 39 -74 43 -151 15z m34 -445 c44 -130 95 -202 271 -382 171 -175
204 -217 259 -327 65 -129 61 -182 -21 -304 -75 -112 -110 -189 -123 -275 -22
-139 18 -262 115 -353 130 -123 309 -151 470 -72 41 21 62 26 66 19 17 -27 31
-188 26 -278 -15 -240 -117 -474 -284 -651 -66 -70 -170 -155 -178 -147 -3 3
2 25 10 49 57 162 28 326 -77 429 -45 44 -94 73 -210 124 -144 64 -188 152
-188 377 0 149 -21 189 -102 189 -24 0 -56 -15 -108 -49 -280 -185 -438 -425
-470 -714 -13 -119 -1 -277 28 -360 l21 -57 -31 17 c-56 32 -225 206 -273 281
-66 102 -112 208 -142 321 -22 80 -26 120 -27 236 -1 166 12 227 79 360 59
118 132 204 306 362 210 190 281 269 331 370 40 81 43 91 46 187 3 78 -1 123
-18 196 -67 292 -17 533 134 641 l41 30 12 -72 c7 -39 24 -106 37 -147z m-49
-1982 c38 -191 108 -278 300 -370 177 -86 208 -131 180 -264 -26 -123 -103
-224 -215 -280 -252 -126 -529 41 -562 339 -17 156 18 326 94 452 29 49 177
218 183 211 1 -2 10 -41 20 -88z m1865 -1395 l0 -225 -1020 0 c-891 0 -1025
-2 -1050 -15 -35 -18 -50 -43 -50 -85 0 -42 15 -67 50 -85 25 -13 139 -15 865
-15 l835 0 0 -225 0 -225 -1400 0 -1400 0 0 225 0 225 140 0 140 0 32 29 c27
24 33 36 33 71 0 35 -6 47 -33 71 l-32 29 -325 0 -325 0 0 225 0 225 1770 0
1770 0 0 -225z m-3370 -650 l0 -225 -275 0 -275 0 0 225 0 225 275 0 275 0 0
-225z m3750 0 l0 -225 -275 0 -275 0 0 225 0 225 275 0 275 0 0 -225z"/>
<path d="M1808 834 c-34 -18 -48 -43 -48 -84 0 -42 15 -67 50 -85 43 -22 76
-18 112 14 27 24 33 36 33 71 0 35 -6 47 -33 71 -36 32 -72 36 -114 13z"/>
<path d="M1574 4539 c-47 -13 -69 -44 -69 -96 0 -37 5 -49 28 -69 41 -35 99
-33 138 5 70 71 0 185 -97 160z"/>
<path d="M3760 3998 c-88 -46 -53 -188 46 -188 80 0 125 104 72 165 -27 31
-82 41 -118 23z"/>
<path d="M4148 3211 c-27 -24 -33 -36 -33 -69 0 -50 33 -89 81 -98 93 -17 153
99 85 167 -40 40 -89 40 -133 0z"/>
<path d="M844 2656 c-37 -37 -43 -70 -20 -115 15 -28 53 -51 86 -51 51 0 100
49 100 99 0 34 -23 72 -51 87 -45 23 -78 17 -115 -20z"/>
<path d="M690 2099 c-65 -26 -81 -110 -31 -160 49 -49 126 -35 156 28 22 45 6
97 -39 124 -34 21 -49 22 -86 8z"/>
<path d="M4224 1951 c-30 -13 -64 -59 -64 -88 0 -13 7 -37 15 -53 44 -85 169
-60 182 36 4 35 1 46 -23 73 -31 33 -76 46 -110 32z"/>
</g>
</svg>
