<?xml version="1.0" encoding="UTF-8"?>
<svg version="1.1" xmlns="http://www.w3.org/2000/svg" width="512" height="512">
<path d="M0 0 C3.66944815 3.00099539 6.96937735 6.29600157 10.25927734 9.70410156 C10.99662109 10.41050781 11.73396484 11.11691406 12.49365234 11.84472656 C25.31131979 24.86111753 30.5911446 43.35368285 30.75927734 61.14160156 C30.56892972 81.30357889 24.43897083 99.71989604 9.96240234 114.09472656 C9.07037109 114.95582031 8.17833984 115.81691406 7.25927734 116.70410156 C6.55287109 117.44144531 5.84646484 118.17878906 5.11865234 118.93847656 C-3.42382068 127.35053015 -18.30927125 135.49126204 -30.51025391 135.76660156 C-31.24630859 135.74597656 -31.98236328 135.72535156 -32.74072266 135.70410156 C-32.74072266 136.36410156 -32.74072266 137.02410156 -32.74072266 137.70410156 C-31.56509766 137.74535156 -30.38947266 137.78660156 -29.17822266 137.82910156 C-7.47158294 140.35075202 9.00032902 156.63527894 21.94677734 172.88769531 C24.44796483 175.93390507 27.07327955 178.82190672 29.75927734 181.70410156 C34.04921465 186.31376272 38.06341346 191.08196765 42.01318359 195.98925781 C44.34758324 198.81083651 46.77918333 201.51000868 49.25927734 204.20410156 C53.35278826 208.65137268 57.18370233 213.25127619 60.97802734 217.95410156 C63.32646703 220.78509735 65.76837637 223.49793754 68.25927734 226.20410156 C72.37306643 230.67395276 76.23015031 235.29455049 80.04443359 240.02050781 C82.21560561 242.65118713 84.46169091 245.18352581 86.75927734 247.70410156 C89.85482931 251.10008838 92.81078941 254.56581687 95.69677734 258.14160156 C99.55752871 262.91550456 103.6336481 267.43798584 107.79052734 271.95410156 C110.98809031 275.51594385 113.97316077 279.22975989 116.97802734 282.95410156 C119.32646703 285.78509735 121.76837637 288.49793754 124.25927734 291.20410156 C128.35155809 295.6500362 132.18170849 300.24813877 135.97412109 304.95019531 C139.13078536 308.75438045 142.48455376 312.36188088 145.84130859 315.98925781 C148.20304528 318.6409654 150.35786349 321.38062699 152.50927734 324.20410156 C155.43152143 327.87294693 157.57590044 330.461573 162.25927734 331.70410156 C168.18348769 331.91835872 172.82088563 330.82546529 177.25927734 326.70410156 C179.35711974 322.85805717 180.24938423 318.77213301 181.13427734 314.51660156 C182.74293952 309.0650242 185.64152988 306.78259987 190.25927734 303.70410156 C195.81325957 303.01486279 200.73037879 302.97988646 205.82177734 305.39160156 C209.38812866 308.77506307 211.07246807 311.29680501 211.72802734 316.23535156 C211.84306925 330.84567346 207.90134209 341.77601103 197.60693359 352.41113281 C192.76937476 356.90721691 186.01912275 361.70410156 179.25927734 361.70410156 C179.58154297 362.47625 179.90380859 363.24839844 180.23583984 364.04394531 C184.39355165 378.91331923 181.30216809 394.89332486 174.57177734 408.39160156 C166.05426695 423.09393735 152.97903812 432.6251498 136.94710064 437.76624489 C130.70712776 439.27593614 124.32561203 438.98706151 117.94551086 438.9715271 C116.48768971 438.97526709 115.02987056 438.97987 113.57205456 438.98525774 C109.57904706 438.99746021 105.58612351 438.99723053 101.59310162 438.99486899 C97.28142013 438.99446013 92.96976531 439.00550669 88.65809631 439.01498413 C80.21523316 439.03158031 71.77239794 439.03709306 63.32951985 439.03820889 C56.46435245 439.03916008 49.59919425 439.04327392 42.73402977 439.04961014 C23.25765885 439.06721926 3.78130996 439.0764496 -15.69506898 439.07494919 C-16.74452678 439.07486928 -17.79398459 439.07478937 -18.87524414 439.07470703 C-19.92598772 439.07462527 -20.9767313 439.07454351 -22.0593156 439.07445927 C-39.08289338 439.0736466 -56.10638263 439.09278026 -73.12993481 439.12098376 C-90.62171911 439.14973364 -108.11346026 439.16352288 -125.60526878 439.16179621 C-135.420683 439.16113301 -145.23600442 439.16659473 -155.05139732 439.18815231 C-163.40944487 439.20639186 -171.76735756 439.21068874 -180.12541642 439.19713347 C-184.38631261 439.19061762 -188.64695029 439.19043629 -192.90782166 439.20783997 C-196.81581673 439.2236375 -200.72334978 439.22063964 -204.63133404 439.2032717 C-206.03777931 439.2002164 -207.44425963 439.20377822 -208.85066351 439.21499185 C-226.16377781 439.34378447 -240.85243167 434.03260296 -253.45947266 422.04394531 C-265.41295695 409.7834366 -271.1285183 395.59686386 -270.99072266 378.57910156 C-270.99845703 377.61617188 -271.00619141 376.65324219 -271.01416016 375.66113281 C-271.00027227 370.61288476 -270.74530524 366.42918908 -268.74072266 361.70410156 C-269.61986328 361.60097656 -270.49900391 361.49785156 -271.40478516 361.39160156 C-280.67338424 359.48144531 -288.42009715 352.25520763 -293.74072266 344.70410156 C-298.43370728 336.56822866 -300.92423617 330.20211923 -301.05322266 320.82910156 C-301.08222656 320.13429688 -301.11123047 319.43949219 -301.14111328 318.72363281 C-301.20476257 313.52397565 -300.10478208 310.63552364 -296.74072266 306.70410156 C-291.51812408 302.64779758 -286.08732123 302.93012613 -279.74072266 303.70410156 C-275.08947014 305.90732644 -273.0937406 308.22246793 -270.74072266 312.70410156 C-270.218282 314.68832061 -269.76120622 316.69073071 -269.36572266 318.70410156 C-268.17728008 323.71649668 -267.11654737 326.6512006 -262.74072266 329.70410156 C-258.60597228 331.72553508 -255.23773926 331.85620316 -250.76806641 331.48144531 C-247.66123294 330.29019317 -245.98580079 328.13039677 -243.74072266 325.70410156 C-242.80848193 324.72228236 -241.87618874 323.74051296 -240.94384766 322.75878906 C-235.38682697 316.79802923 -230.05625715 310.74150012 -224.95166016 304.38378906 C-222.63137315 301.57156842 -220.21001131 298.88612894 -217.74072266 296.20410156 C-214.44740567 292.62617693 -211.29420944 288.9887049 -208.24072266 285.20410156 C-205.18723587 281.41949822 -202.03403965 277.78202619 -198.74072266 274.20410156 C-194.62693357 269.73425036 -190.76984969 265.11365263 -186.95556641 260.38769531 C-184.07591379 256.89859241 -181.0337839 253.57413236 -177.98681641 250.23144531 C-175.67884668 247.63447764 -173.48516403 244.97006144 -171.30322266 242.26660156 C-167.44247129 237.49269856 -163.3663519 232.97021729 -159.20947266 228.45410156 C-156.79694162 225.76672522 -154.50816055 223.01444712 -152.24072266 220.20410156 C-149.18723587 216.41949822 -146.03403965 212.78202619 -142.74072266 209.20410156 C-138.62693357 204.73425036 -134.76984969 200.11365263 -130.95556641 195.38769531 C-128.07003233 191.8914662 -125.02175147 188.56028092 -121.96728516 185.21191406 C-119.76211509 182.7281962 -117.68561262 180.17615451 -115.61572266 177.57910156 C-101.3730388 160.04388834 -85.02703358 142.07809556 -61.74072266 137.70410156 C-60.07453219 137.66426297 -58.40664596 137.65432881 -56.74072266 137.70410156 C-56.74072266 137.04410156 -56.74072266 136.38410156 -56.74072266 135.70410156 C-57.95759766 135.64222656 -59.17447266 135.58035156 -60.42822266 135.51660156 C-75.53535152 133.80636056 -88.17785926 125.06415798 -98.74072266 114.70410156 C-99.51544922 113.96546875 -100.29017578 113.22683594 -101.08837891 112.46582031 C-107.91825174 105.49536691 -111.97337051 97.5958509 -115.74072266 88.70410156 C-116.42714844 87.10695312 -116.42714844 87.10695312 -117.12744141 85.47753906 C-122.54264556 70.1629617 -122.13259926 49.62451608 -115.74072266 34.70410156 C-115.34602783 33.75083984 -115.34602783 33.75083984 -114.94335938 32.77832031 C-110.53815736 22.34744016 -104.85369323 14.53569743 -96.74072266 6.70410156 C-96.03431641 5.96675781 -95.32791016 5.22941406 -94.60009766 4.46972656 C-70.44194919 -19.31959521 -26.54699753 -19.76317852 0 0 Z M-120.74072266 232.70410156 C-122.03947285 234.24347531 -123.30303416 235.81253465 -124.55322266 237.39160156 C-128.13199992 241.82382332 -131.84378455 246.05046777 -135.74072266 250.20410156 C-139.38993513 254.09953424 -142.89773622 258.03748079 -146.24072266 262.20410156 C-150.06066277 266.96518634 -154.13011085 271.41683181 -158.29931641 275.86816406 C-161.41640819 279.21527026 -164.37653378 282.63424297 -167.24072266 286.20410156 C-170.58376013 290.37078595 -174.0920357 294.30812361 -177.74072266 298.20410156 C-183.80747749 304.68725902 -189.80598559 311.30199596 -194.74072266 318.70410156 C-169.99072266 318.70410156 -145.24072266 318.70410156 -119.74072266 318.70410156 C-119.74072266 290.32410156 -119.74072266 261.94410156 -119.74072266 232.70410156 C-120.07072266 232.70410156 -120.40072266 232.70410156 -120.74072266 232.70410156 Z M30.25927734 232.70410156 C30.25927734 261.08410156 30.25927734 289.46410156 30.25927734 318.70410156 C55.00927734 318.70410156 79.75927734 318.70410156 105.25927734 318.70410156 C101.51929205 313.7174545 98.1525411 309.34659576 93.94677734 304.89160156 C90.42441662 301.12075821 87.05191998 297.29547038 83.82177734 293.26660156 C79.97817677 288.48788529 75.88967571 284.01252469 71.70092773 279.5402832 C67.79931065 275.35080631 64.18602937 270.98237221 60.60302734 266.51660156 C57.9271892 263.30559579 55.11560869 260.25390031 52.25927734 257.20410156 C46.99039185 251.57563336 42.09237756 245.7120463 37.25927734 239.70410156 C35.29595825 237.33072215 33.30616735 235.00685282 31.25927734 232.70410156 C30.92927734 232.70410156 30.59927734 232.70410156 30.25927734 232.70410156 Z " fill="#FE9E00" transform="translate(300.74072265625,73.2958984375)"/>
<path d="M0 0 C4.65125251 2.20322487 6.64698206 4.51836637 9 9 C9.52244065 10.98421904 9.97951644 12.98662915 10.375 15 C11.56344258 20.01239512 12.62417529 22.94709904 17 26 C21.73947963 28.31707893 25.98677508 28.37310756 31 27 C33.98695948 25.5950824 36.88239444 24.06325005 39.7890625 22.5 C40.72492187 22.005 41.66078125 21.51 42.625 21 C43.54539062 20.505 44.46578125 20.01 45.4140625 19.5 C57.93181062 14.26381778 70.24962193 14.57391805 83.58203125 14.63671875 C85.76771545 14.63723826 87.95340012 14.63671704 90.13908386 14.63520813 C94.6988328 14.63529742 99.25840334 14.64564265 103.81811523 14.66381836 C109.65309727 14.6865714 115.4878207 14.68703272 121.32283497 14.68030071 C125.82761421 14.67695603 130.33233479 14.68359918 134.83710289 14.69342995 C136.98882426 14.69726852 139.14055217 14.69843575 141.29227638 14.6968441 C144.29759757 14.69647213 147.30258972 14.70912843 150.30786133 14.7253418 C151.18956497 14.72286438 152.07126862 14.72038696 152.97969055 14.71783447 C157.99924513 14.7609259 162.19120202 15.38838288 167 17 C168.19496094 17.33257812 169.38992187 17.66515625 170.62109375 18.0078125 C195.82717819 25.38646158 219.21336688 40.06965488 233 63 C233.33 63.66 233.66 64.32 234 65 C234.66 65 235.32 65 236 65 C237.27876643 63.31451105 237.27876643 63.31451105 238.5625 61.125 C242.16375473 55.54349327 246.45262114 50.82178965 251 46 C251.90492188 44.98099609 251.90492188 44.98099609 252.828125 43.94140625 C265.62263049 30.1177775 284.09606917 21.7638454 302 17 C303.18707047 16.65899261 304.37414093 16.31798523 305.59718323 15.96664429 C310.26815288 14.80888837 314.74914524 14.70437048 319.54272461 14.70947266 C320.92266098 14.69939682 320.92266098 14.69939682 322.33047485 14.68911743 C325.35448708 14.67021312 328.37827619 14.66621614 331.40234375 14.6640625 C333.52494901 14.65762612 335.6475534 14.65089715 337.77015686 14.64389038 C342.21764172 14.63193414 346.66504904 14.62820754 351.11254883 14.62939453 C356.7674333 14.62959688 362.42181049 14.60237405 368.07657528 14.56785011 C372.4633861 14.54542783 376.85007817 14.54156176 381.23694038 14.54261398 C383.31901345 14.54027796 385.40109083 14.53156946 387.48310661 14.51594925 C402.91334582 14.41108198 418.48719978 14.85147857 432 23.1875 C439.51641994 27.55407478 439.51641994 27.55407478 448 28 C452.16542095 26.72172267 455.06109944 25.30104791 457.640625 21.7265625 C459.10001061 18.79940401 459.74582952 16.20304972 460.375 13 C461.98313923 6.110393 464.16290649 3.89139567 470 0 C475.55398223 -0.68923878 480.47110145 -0.7242151 485.5625 1.6875 C489.12885132 5.0709615 490.81319072 7.59270345 491.46875 12.53125 C491.5837919 27.1415719 487.64206475 38.07190947 477.34765625 48.70703125 C472.51009741 53.20311534 465.7598454 58 459 58 C459.32226562 58.77214844 459.64453125 59.54429687 459.9765625 60.33984375 C464.13427431 75.20921766 461.04289075 91.18922329 454.3125 104.6875 C445.7949896 119.38983579 432.71976078 128.92104823 416.6878233 134.06214333 C410.44785042 135.57183458 404.06633468 135.28295995 397.68623352 135.26742554 C396.22841237 135.27116553 394.77059322 135.27576844 393.31277722 135.28115618 C389.31976971 135.29335865 385.32684616 135.29312897 381.33382428 135.29076743 C377.02214279 135.29035856 372.71048797 135.30140513 368.39881897 135.31088257 C359.95595582 135.32747875 351.5131206 135.3329915 343.0702425 135.33410732 C336.20507511 135.33505851 329.33991691 135.33917235 322.47475243 135.34550858 C302.99838151 135.3631177 283.52203261 135.37234803 264.04565368 135.37084763 C262.99619587 135.37076772 261.94673807 135.3706878 260.86547852 135.37060547 C259.81473493 135.37052371 258.76399135 135.37044195 257.68140706 135.37035771 C240.65782928 135.36954504 223.63434003 135.38867869 206.61078785 135.4168822 C189.11900355 135.44563208 171.6272624 135.45942132 154.13545388 135.45769465 C144.32003966 135.45703145 134.50471823 135.46249316 124.68932533 135.48405075 C116.33127779 135.50229029 107.9733651 135.50658718 99.61530624 135.4930319 C95.35441005 135.48651606 91.09377236 135.48633472 86.832901 135.5037384 C82.92490592 135.51953594 79.01737288 135.51653808 75.10938861 135.49917014 C73.70294335 135.49611484 72.29646303 135.49967666 70.89005915 135.51089029 C53.57694485 135.63968291 38.88829099 130.3285014 26.28125 118.33984375 C14.32776571 106.07933503 8.61220435 91.8927623 8.75 74.875 C8.74226563 73.91207031 8.73453125 72.94914062 8.7265625 71.95703125 C8.74045039 66.90878319 8.99541742 62.72508752 11 58 C10.12085937 57.896875 9.24171875 57.79375 8.3359375 57.6875 C-0.93266159 55.77734375 -8.67937449 48.55110607 -14 41 C-18.69298462 32.8641271 -21.18351352 26.49801767 -21.3125 17.125 C-21.34150391 16.43019531 -21.37050781 15.73539062 -21.40039062 15.01953125 C-21.46403991 9.81987409 -20.36405942 6.93142208 -17 3 C-11.77740143 -1.05630398 -6.34659858 -0.77397544 0 0 Z " fill="#FEE7A0" transform="translate(21,377)"/>
<path d="M0 0 C0.79841309 0.22042969 1.59682617 0.44085938 2.41943359 0.66796875 C25.58400493 7.2652247 44.51441228 18.49870033 62 35 C62.73734375 35.67289063 63.4746875 36.34578125 64.234375 37.0390625 C81.86358538 53.73054892 92.61255006 75.86417074 99 99 C99.28810547 100.0216626 99.28810547 100.0216626 99.58203125 101.06396484 C108.43690429 134.22749221 100.81475168 171.72780525 84.3359375 201.1015625 C79.71436607 209.00371114 74.42704123 217.78647938 66 222 C60.82387595 222.51592086 56.36901836 222.59738983 51.5625 220.5 C47.15159721 216.1966802 44.64705149 211.77794826 44.5625 205.5 C45.44604951 199.47161534 49.06737004 195.181536 52.55908203 190.37915039 C68.80080814 167.832276 73.60365459 139.41317038 69.19921875 112.15625 C65.7810859 95.05616941 58.29894288 79.26739983 47 66 C46.28070313 65.13117188 45.56140625 64.26234375 44.8203125 63.3671875 C26.74554005 42.3335555 0.91294951 30.68910464 -26.4375 28.125 C-51.96655863 27.00554395 -78.30642933 34.32691563 -98 51 C-98.49048828 51.41507813 -98.98097656 51.83015625 -99.48632812 52.2578125 C-118.87407902 68.85508611 -133.11021581 92.29802532 -136 118 C-137.97637555 146.22060708 -133.25047006 173.80999769 -114.625 196.125 C-111.29816481 200.43557677 -110.49515017 204.60923066 -111 210 C-112.24652277 214.45077456 -114.2708503 217.28863444 -117.5625 220.5 C-122.4591083 222.6367018 -126.73922293 222.74139887 -132 222 C-145.67244422 216.10208288 -154.33306143 194.61547795 -159.65625 181.6328125 C-161.1480972 177.59962095 -162.50250392 173.55210537 -163.75 169.4375 C-164.04825684 168.46598999 -164.04825684 168.46598999 -164.35253906 167.47485352 C-167.68422445 155.89538949 -168.38036884 144.24400136 -168.3125 132.25 C-168.31001251 131.54523529 -168.30752502 130.84047058 -168.30496216 130.11434937 C-168.24701292 119.48736147 -167.90207046 109.29115086 -165 99 C-164.66935547 97.80238037 -164.66935547 97.80238037 -164.33203125 96.58056641 C-157.7347753 73.41599507 -146.50129967 54.48558772 -130 37 C-129.32710937 36.26265625 -128.65421875 35.5253125 -127.9609375 34.765625 C-111.26945108 17.13641462 -89.13582926 6.38744994 -66 0 C-64.9783374 -0.28810547 -64.9783374 -0.28810547 -63.93603516 -0.58203125 C-44.71755842 -5.71348695 -19.10354581 -5.38713665 0 0 Z " fill="#FFFAC9" transform="translate(289,3)"/>
<path d="M0 0 C4.65125251 2.20322487 6.64698206 4.51836637 9 9 C9.52244065 10.98421904 9.97951644 12.98662915 10.375 15 C11.56344258 20.01239512 12.62417529 22.94709904 17 26 C21.75008353 28.21670565 25.8636163 28.17711668 31 28 C30.154375 28.969375 29.30875 29.93875 28.4375 30.9375 C27.28887601 32.2893004 26.14324632 33.64364856 25 35 C24.4121875 35.68707031 23.824375 36.37414062 23.21875 37.08203125 C18.00262611 43.43060308 14.59498275 50.21505174 12 58 C3.86780578 57.81928457 -2.36636219 53.26527934 -8.2734375 47.95703125 C-16.62351668 39.17505143 -21.14701604 29.15016807 -21.3125 17.125 C-21.34150391 16.43019531 -21.37050781 15.73539062 -21.40039062 15.01953125 C-21.46403991 9.81987409 -20.36405942 6.93142208 -17 3 C-11.77740143 -1.05630398 -6.34659858 -0.77397544 0 0 Z " fill="#FD7100" transform="translate(21,377)"/>
<path d="M0 0 C4.60231304 2.18004302 6.78895161 4.47142213 9 9 C10.66221997 21.52205712 8.19690948 32.68209212 0.625 42.9375 C-5.18565939 49.77283481 -11.52423692 54.79141967 -20 58 C-21.32 58 -22.64 58 -24 58 C-24.41958984 56.87464844 -24.41958984 56.87464844 -24.84765625 55.7265625 C-29.0218087 45.06972312 -34.56854759 36.73950951 -43 29 C-40.32362921 28.1078764 -38.45436505 27.85475436 -35.6875 27.6875 C-31.16962661 27.18796278 -28.41054299 26.16693278 -25 23 C-22.90215761 19.15395561 -22.00989312 15.06803145 -21.125 10.8125 C-18.02676105 0.31291246 -9.64076394 -1.03293899 0 0 Z " fill="#FD7100" transform="translate(503,377)"/>
</svg>
