<?xml version="1.0" encoding="UTF-8"?>
<svg version="1.1" xmlns="http://www.w3.org/2000/svg" width="512" height="512">
<path d="M0 0 C3.66944815 3.00099539 6.96937735 6.29600157 10.25927734 9.70410156 C10.99662109 10.41050781 11.73396484 11.11691406 12.49365234 11.84472656 C25.31131979 24.86111753 30.5911446 43.35368285 30.75927734 61.14160156 C30.56892972 81.30357889 24.43897083 99.71989604 9.96240234 114.09472656 C9.07037109 114.95582031 8.17833984 115.81691406 7.25927734 116.70410156 C6.55287109 117.44144531 5.84646484 118.17878906 5.11865234 118.93847656 C-3.42382068 127.35053015 -18.30927125 135.49126204 -30.51025391 135.76660156 C-31.24630859 135.74597656 -31.98236328 135.72535156 -32.74072266 135.70410156 C-32.74072266 136.36410156 -32.74072266 137.02410156 -32.74072266 137.70410156 C-31.52384766 137.76597656 -30.30697266 137.82785156 -29.05322266 137.89160156 C-13.85186278 139.61251023 -1.44301212 148.40733542 9.25927734 158.70410156 C9.94892578 159.35378906 10.63857422 160.00347656 11.34912109 160.67285156 C15.95240613 165.12117453 19.96876162 169.92723293 23.97412109 174.91503906 C26.16388535 177.58767442 28.43038933 180.15245034 30.75927734 182.70410156 C33.85482931 186.10008838 36.81078941 189.56581687 39.69677734 193.14160156 C43.55752871 197.91550456 47.6336481 202.43798584 51.79052734 206.95410156 C54.98809031 210.51594385 57.97316077 214.22975989 60.97802734 217.95410156 C63.32646703 220.78509735 65.76837637 223.49793754 68.25927734 226.20410156 C72.35278826 230.65137268 76.18370233 235.25127619 79.97802734 239.95410156 C82.32646703 242.78509735 84.76837637 245.49793754 87.25927734 248.20410156 C91.37306643 252.67395276 95.23015031 257.29455049 99.04443359 262.02050781 C101.21560561 264.65118713 103.46169091 267.18352581 105.75927734 269.70410156 C108.85482931 273.10008838 111.81078941 276.56581687 114.69677734 280.14160156 C118.55752871 284.91550456 122.6336481 289.43798584 126.79052734 293.95410156 C129.98809031 297.51594385 132.97316077 301.22975989 135.97802734 304.95410156 C139.1112954 308.73119183 142.43784483 312.31485608 145.76708984 315.91894531 C149.09965524 319.64326997 152.18431866 323.54497573 155.25146484 327.48925781 C157.89657836 330.4071165 159.76415422 331.51690729 163.66162109 332.00488281 C170.48946989 332.08220735 170.48946989 332.08220735 176.25927734 328.70410156 C178.88665696 324.94595097 179.82698232 321.69140378 180.63427734 317.20410156 C182.19526946 309.93316462 184.1514448 307.77598993 190.25927734 303.70410156 C195.81325957 303.01486279 200.73037879 302.97988646 205.82177734 305.39160156 C209.38812866 308.77506307 211.07246807 311.29680501 211.72802734 316.23535156 C211.84337156 330.88406663 207.84895694 341.626613 197.67724609 352.37597656 C192.65500608 357.11716665 186.47111374 359.82768471 180.25927734 362.70410156 C180.49940552 363.79174805 180.49940552 363.79174805 180.74438477 364.90136719 C183.90110952 382.08448723 180.97646182 399.17151233 171.25927734 413.70410156 C161.43053583 426.33310717 148.37747381 436.04938729 132.25927734 438.70410156 C127.48919624 438.99677915 122.72266305 438.98315861 117.94551086 438.9715271 C116.48768971 438.97526709 115.02987056 438.97987 113.57205456 438.98525774 C109.57904706 438.99746021 105.58612351 438.99723053 101.59310162 438.99486899 C97.28142013 438.99446013 92.96976531 439.00550669 88.65809631 439.01498413 C80.21523316 439.03158031 71.77239794 439.03709306 63.32951985 439.03820889 C56.46435245 439.03916008 49.59919425 439.04327392 42.73402977 439.04961014 C23.25765885 439.06721926 3.78130996 439.0764496 -15.69506898 439.07494919 C-16.74452678 439.07486928 -17.79398459 439.07478937 -18.87524414 439.07470703 C-19.92598772 439.07462527 -20.9767313 439.07454351 -22.0593156 439.07445927 C-39.08289338 439.0736466 -56.10638263 439.09278026 -73.12993481 439.12098376 C-90.62171911 439.14973364 -108.11346026 439.16352288 -125.60526878 439.16179621 C-135.420683 439.16113301 -145.23600442 439.16659473 -155.05139732 439.18815231 C-163.40944487 439.20639186 -171.76735756 439.21068874 -180.12541642 439.19713347 C-184.38631261 439.19061762 -188.64695029 439.19043629 -192.90782166 439.20783997 C-196.81581673 439.2236375 -200.72334978 439.22063964 -204.63133404 439.2032717 C-206.03777931 439.2002164 -207.44425963 439.20377822 -208.85066351 439.21499185 C-226.16377781 439.34378447 -240.85243167 434.03260296 -253.45947266 422.04394531 C-264.40656132 410.81568143 -270.99768482 397.22374764 -270.96533203 381.42480469 C-270.94696289 379.98524414 -270.94696289 379.98524414 -270.92822266 378.51660156 C-270.92757813 377.54529297 -270.92693359 376.57398438 -270.92626953 375.57324219 C-270.89883774 371.12624361 -270.71565313 367.05846682 -269.74072266 362.70410156 C-270.49095703 362.37539063 -271.24119141 362.04667969 -272.01416016 361.70800781 C-283.64712509 356.30175585 -292.097833 349.36234885 -297.74072266 337.70410156 C-298.07974609 337.02089844 -298.41876953 336.33769531 -298.76806641 335.63378906 C-300.79289319 330.72568359 -301.06932518 325.77838402 -301.17822266 320.51660156 C-301.21181885 319.50025635 -301.21181885 319.50025635 -301.24609375 318.46337891 C-301.22252419 313.40832855 -299.98382164 310.53483899 -296.74072266 306.70410156 C-291.51812408 302.64779758 -286.08732123 302.93012613 -279.74072266 303.70410156 C-275.09564669 305.9044007 -273.07172967 308.21357851 -270.74072266 312.70410156 C-270.21362779 314.85507457 -269.7578508 317.02448017 -269.36572266 319.20410156 C-268.19986806 324.65709345 -267.27444601 327.44912069 -262.74072266 330.70410156 C-259.01464976 332.56713801 -254.80732031 332.12021853 -250.74072266 331.70410156 C-245.11037166 329.29109399 -241.87894255 324.39551026 -238.16259766 319.70019531 C-235.7865445 316.76078762 -233.30523931 313.97967315 -230.74072266 311.20410156 C-226.62693357 306.73425036 -222.76984969 302.11365263 -218.95556641 297.38769531 C-216.07591379 293.89859241 -213.0337839 290.57413236 -209.98681641 287.23144531 C-207.67884668 284.63447764 -205.48516403 281.97006144 -203.30322266 279.26660156 C-199.44247129 274.49269856 -195.3663519 269.97021729 -191.20947266 265.45410156 C-188.79694162 262.76672522 -186.50816055 260.01444712 -184.24072266 257.20410156 C-180.40353235 252.44814738 -176.34687165 247.94905355 -172.20947266 243.45410156 C-169.79694162 240.76672522 -167.50816055 238.01444712 -165.24072266 235.20410156 C-162.18723587 231.41949822 -159.03403965 227.78202619 -155.74072266 224.20410156 C-151.62693357 219.73425036 -147.76984969 215.11365263 -143.95556641 210.38769531 C-141.07591379 206.89859241 -138.0337839 203.57413236 -134.98681641 200.23144531 C-132.67884668 197.63447764 -130.48516403 194.97006144 -128.30322266 192.26660156 C-124.43952157 187.48905118 -120.36187734 182.96222016 -116.19775391 178.44628906 C-113.83590254 175.81032776 -111.62646739 173.10202453 -109.42822266 170.32910156 C-96.80712974 154.8244549 -81.2650543 140.30463058 -60.42822266 137.89160156 C-59.21134766 137.82972656 -57.99447266 137.76785156 -56.74072266 137.70410156 C-56.74072266 137.04410156 -56.74072266 136.38410156 -56.74072266 135.70410156 C-57.95759766 135.64222656 -59.17447266 135.58035156 -60.42822266 135.51660156 C-75.53535152 133.80636056 -88.17785926 125.06415798 -98.74072266 114.70410156 C-99.51544922 113.96546875 -100.29017578 113.22683594 -101.08837891 112.46582031 C-107.91825174 105.49536691 -111.97337051 97.5958509 -115.74072266 88.70410156 C-116.42714844 87.10695312 -116.42714844 87.10695312 -117.12744141 85.47753906 C-122.54264556 70.1629617 -122.13259926 49.62451608 -115.74072266 34.70410156 C-115.34602783 33.75083984 -115.34602783 33.75083984 -114.94335938 32.77832031 C-110.53815736 22.34744016 -104.85369323 14.53569743 -96.74072266 6.70410156 C-96.03431641 5.96675781 -95.32791016 5.22941406 -94.60009766 4.46972656 C-70.40433808 -19.35663211 -26.63378874 -19.82779112 0 0 Z M-80.72509766 34.97363281 C-88.74809707 45.8419983 -89.81411555 57.62450202 -88.74072266 70.70410156 C-86.23852677 82.82902792 -78.54841007 92.46409197 -68.74072266 99.70410156 C-57.4345895 105.9936061 -45.13461015 107.64269863 -32.42822266 105.02050781 C-20.9351883 101.08610259 -11.04831615 93.44751368 -5.10009766 82.75488281 C0.03534028 71.70188565 1.65719136 58.3931844 -2.36572266 46.64160156 C-7.88736041 34.08371014 -16.56582329 24.9233013 -29.29541016 19.57910156 C-48.62491836 12.66247243 -67.78006234 20.01442242 -80.72509766 34.97363281 Z M-80.72900391 185.00878906 C-89.28160595 196.4676151 -90.06287643 210.06849548 -89.96777344 223.92016602 C-89.96806549 225.06323212 -89.96835754 226.20629822 -89.96865845 227.38400269 C-89.96728002 231.11187695 -89.95178961 234.83954405 -89.93603516 238.56738281 C-89.93229973 241.17197053 -89.92945526 243.77655966 -89.92745972 246.38114929 C-89.92128212 252.50417195 -89.90492257 258.62712186 -89.88476074 264.75011271 C-89.86228479 271.72971486 -89.85137912 278.70932076 -89.84136987 285.68895018 C-89.82055232 300.02737278 -89.78545 314.36573458 -89.74072266 328.70410156 C-88.08197868 329.62561005 -88.08197868 329.62561005 -86.38972473 330.56573486 C-84.92827943 331.38157869 -83.46691378 332.1975652 -82.00561523 333.01367188 C-81.2780024 333.41740021 -80.55038956 333.82112854 -79.80072784 334.23709106 C-74.97929574 336.9346043 -70.52739094 339.7240942 -66.42822266 343.45410156 C-65.86901123 343.94724854 -65.3097998 344.44039551 -64.73364258 344.94848633 C-58.10742761 350.94623166 -51.5752075 357.83460197 -47.06494141 365.58300781 C-46.62794922 366.28296875 -46.19095703 366.98292969 -45.74072266 367.70410156 C-45.08072266 367.70410156 -44.42072266 367.70410156 -43.74072266 367.70410156 C-42.51192158 366.14701784 -41.35891014 364.52992954 -40.24072266 362.89160156 C-30.85788152 349.75225491 -20.23857187 339.64757743 -6.00561523 332.04882812 C-5.40254799 331.72616974 -4.79948074 331.40351135 -4.17813873 331.07107544 C-2.69986908 330.2804571 -1.2204141 329.49205572 0.25927734 328.70410156 C0.30616333 313.67373262 0.34134706 298.64336939 0.36290169 283.6129427 C0.37317943 276.63280595 0.3871721 269.65271485 0.41015625 262.67260742 C0.43234982 255.92933409 0.44386534 249.1861081 0.44903183 242.44280052 C0.45271111 239.87736454 0.45989559 237.31193098 0.47073746 234.74651527 C0.48537465 231.13767644 0.48725019 227.52903002 0.48632812 223.92016602 C0.49711395 222.34921928 0.49711395 222.34921928 0.50811768 220.74653625 C0.46298786 204.29349574 -2.70525909 191.03521532 -14.31884766 178.89550781 C-18.13180688 175.4453947 -22.12612863 172.94484193 -26.74072266 170.70410156 C-27.40072266 170.36507812 -28.06072266 170.02605469 -28.74072266 169.67675781 C-47.56899831 161.69680504 -68.25194633 170.41955944 -80.72900391 185.00878906 Z M-120.74072266 231.70410156 C-122.44562615 233.44858318 -124.1009878 235.21220713 -125.74072266 237.01660156 C-126.23693115 237.55986084 -126.73313965 238.10312012 -127.24438477 238.6628418 C-131.15526482 242.97978663 -134.84230941 247.45152753 -138.49462891 251.98925781 C-140.82902855 254.81083651 -143.26062864 257.51000868 -145.74072266 260.20410156 C-149.85451174 264.67395276 -153.71159562 269.29455049 -157.52587891 274.02050781 C-160.40553152 277.50961072 -163.44766141 280.83407077 -166.49462891 284.17675781 C-168.80259863 286.77372549 -170.99628128 289.43814169 -173.17822266 292.14160156 C-176.29031637 295.99234231 -179.50982092 299.68888743 -182.86572266 303.32910156 C-190.31602417 310.28939718 -190.31602417 310.28939718 -194.74072266 318.70410156 C-169.99072266 319.03410156 -145.24072266 319.36410156 -119.74072266 319.70410156 C-119.74072266 290.66410156 -119.74072266 261.62410156 -119.74072266 231.70410156 C-120.07072266 231.70410156 -120.40072266 231.70410156 -120.74072266 231.70410156 Z M30.25927734 231.70410156 C30.25927734 260.74410156 30.25927734 289.78410156 30.25927734 319.70410156 C55.00927734 319.37410156 79.75927734 319.04410156 105.25927734 318.70410156 C102.96217421 314.87559634 101.10164519 312.25918395 98.13427734 309.07910156 C94.90749741 305.5603997 91.81652119 301.98476488 88.82177734 298.26660156 C84.96102597 293.49269856 80.88490659 288.97021729 76.72802734 284.45410156 C73.53046438 280.89225927 70.54539392 277.17844323 67.54052734 273.45410156 C65.19208766 270.62310578 62.75017832 267.91026559 60.25927734 265.20410156 C56.14993077 260.73907739 52.29692248 256.12340676 48.48583984 251.40332031 C45.54487815 247.83804921 42.4553811 244.42281601 39.34130859 241.00878906 C37.43577488 238.89947406 35.58915562 236.75399268 33.75927734 234.57910156 C32.93427734 233.63035156 32.10927734 232.68160156 31.25927734 231.70410156 C30.92927734 231.70410156 30.59927734 231.70410156 30.25927734 231.70410156 Z M-233.05322266 358.95410156 C-239.24052255 366.45422736 -240.32726498 372.57622693 -240.08837891 382.29785156 C-239.29415799 390.07943175 -235.55305201 396.51313481 -229.74072266 401.70410156 C-219.52625602 409.09537589 -208.11017742 408.99730664 -195.92773438 408.93115234 C-194.45829781 408.93058713 -192.98886068 408.93090694 -191.51942444 408.93203735 C-187.55934869 408.93260756 -183.59939587 408.92090745 -179.63934851 408.90688944 C-175.49005105 408.89432632 -171.34075031 408.8932072 -167.19143677 408.89083862 C-159.34710607 408.88464018 -151.5028316 408.86825164 -143.65852559 408.84813964 C-134.72255868 408.82572955 -125.786589 408.8147744 -116.85060096 408.80474877 C-98.48060974 408.78388385 -80.11067073 408.7487399 -61.74072266 408.70410156 C-62.20141968 406.78710438 -62.66715937 404.87131862 -63.13500977 402.95605469 C-63.39382431 401.88907349 -63.65263885 400.82209229 -63.91929626 399.72277832 C-68.61750726 382.45722601 -82.28335075 367.4092459 -97.59130859 358.64453125 C-115.11300304 349.28213902 -132.73858542 348.54508514 -152.18603516 348.53613281 C-153.84886706 348.53291069 -155.51169869 348.52954594 -157.17453003 348.52604675 C-160.63882098 348.52009937 -164.10308713 348.51820252 -167.56738281 348.51879883 C-171.9828699 348.51890071 -176.39819715 348.50520155 -180.81364632 348.48802662 C-184.2402315 348.47685834 -187.66677846 348.47488103 -191.09337997 348.47540855 C-192.72069733 348.47423753 -194.34801596 348.46986571 -195.97531509 348.46207619 C-216.38544102 348.35409907 -216.38544102 348.35409907 -233.05322266 358.95410156 Z M36.09936523 349.58007812 C35.07943182 349.69310083 35.07943182 349.69310083 34.0388937 349.80840683 C15.27598428 352.16724324 -1.74059162 362.77429609 -13.49072266 377.32910156 C-19.74004422 385.38752414 -24.67157103 394.39856747 -26.82446289 404.43334961 C-26.99799789 405.23556442 -27.1715329 406.03777924 -27.35032654 406.86430359 C-27.47915726 407.47143692 -27.60798798 408.07857025 -27.74072266 408.70410156 C-8.48625347 408.75088925 10.76820412 408.78612354 30.02271843 408.80772591 C38.96356994 408.8180243 47.90438606 408.8320571 56.84521484 408.85498047 C64.64097084 408.87495841 72.43670119 408.88782844 80.23248208 408.89227855 C84.35761511 408.89487849 88.48267481 408.90095936 92.60778427 408.91556168 C96.49667843 408.92921527 100.38546959 408.9333086 104.27438545 408.93031693 C105.69569141 408.93086363 107.1170011 408.93479451 108.53828621 408.94251251 C120.77280027 409.00564707 132.4645515 408.66553823 142.01318359 400.13769531 C148.91995459 392.67699782 150.96782679 385.16218274 150.64208984 375.07519531 C149.7603754 367.31071 146.0734133 360.89668178 140.25927734 355.70410156 C129.46852324 347.89582076 117.01841342 348.40129938 104.25537109 348.43847656 C102.60644982 348.43712542 100.95752894 348.43518116 99.30860901 348.43267822 C95.86170641 348.42974231 92.41490798 348.43397108 88.96801758 348.44335938 C84.60022532 348.45468984 80.2326807 348.44822547 75.86489773 348.43621445 C72.45945965 348.42890001 69.05407778 348.43132814 65.64863777 348.43647003 C64.04106681 348.43778353 62.43349036 348.4362418 60.82592583 348.43151093 C52.53076387 348.41246759 44.3475797 348.64614567 36.09936523 349.58007812 Z " fill="#FD8200" transform="translate(300.74072265625,73.2958984375)"/>
<path d="M0 0 C0.79841309 0.22042969 1.59682617 0.44085938 2.41943359 0.66796875 C25.58400493 7.2652247 44.51441228 18.49870033 62 35 C62.73734375 35.67289063 63.4746875 36.34578125 64.234375 37.0390625 C81.86358538 53.73054892 92.61255006 75.86417074 99 99 C99.28810547 100.0216626 99.28810547 100.0216626 99.58203125 101.06396484 C108.43690429 134.22749221 100.81475168 171.72780525 84.3359375 201.1015625 C79.71436607 209.00371114 74.42704123 217.78647938 66 222 C60.82387595 222.51592086 56.36901836 222.59738983 51.5625 220.5 C47.15159721 216.1966802 44.64705149 211.77794826 44.5625 205.5 C45.44604951 199.47161534 49.06737004 195.181536 52.55908203 190.37915039 C68.80080814 167.832276 73.60365459 139.41317038 69.19921875 112.15625 C65.7810859 95.05616941 58.29894288 79.26739983 47 66 C46.28070313 65.13117188 45.56140625 64.26234375 44.8203125 63.3671875 C26.74554005 42.3335555 0.91294951 30.68910464 -26.4375 28.125 C-51.96655863 27.00554395 -78.30642933 34.32691563 -98 51 C-98.49048828 51.41507813 -98.98097656 51.83015625 -99.48632812 52.2578125 C-118.87407902 68.85508611 -133.11021581 92.29802532 -136 118 C-137.97637555 146.22060708 -133.25047006 173.80999769 -114.625 196.125 C-111.29816481 200.43557677 -110.49515017 204.60923066 -111 210 C-112.24652277 214.45077456 -114.2708503 217.28863444 -117.5625 220.5 C-122.4591083 222.6367018 -126.73922293 222.74139887 -132 222 C-145.67244422 216.10208288 -154.33306143 194.61547795 -159.65625 181.6328125 C-161.1480972 177.59962095 -162.50250392 173.55210537 -163.75 169.4375 C-164.04825684 168.46598999 -164.04825684 168.46598999 -164.35253906 167.47485352 C-167.68422445 155.89538949 -168.38036884 144.24400136 -168.3125 132.25 C-168.31001251 131.54523529 -168.30752502 130.84047058 -168.30496216 130.11434937 C-168.24701292 119.48736147 -167.90207046 109.29115086 -165 99 C-164.66935547 97.80238037 -164.66935547 97.80238037 -164.33203125 96.58056641 C-157.7347753 73.41599507 -146.50129967 54.48558772 -130 37 C-129.32710937 36.26265625 -128.65421875 35.5253125 -127.9609375 34.765625 C-111.26945108 17.13641462 -89.13582926 6.38744994 -66 0 C-64.9783374 -0.28810547 -64.9783374 -0.28810547 -63.93603516 -0.58203125 C-44.71755842 -5.71348695 -19.10354581 -5.38713665 0 0 Z " fill="#FEC400" transform="translate(289,3)"/>
</svg>
