<?xml version="1.0" encoding="UTF-8"?>
<svg version="1.1" xmlns="http://www.w3.org/2000/svg" width="512" height="512">
<path d="M0 0 C5.67444953 3.75445153 10.08820686 8.36086382 12 15 C12.12026868 16.85213766 12.20177452 18.70708825 12.25 20.5625 C12.46264374 24.53475458 12.46264374 24.53475458 14.515625 27.80078125 C15.89001969 28.89109829 17.27922315 29.96290851 18.6796875 31.01953125 C30.99168646 41.52825764 37.15398729 59.4745598 39 75 C39.27307172 80.0051627 39.19180143 84.99185157 39 90 C39.77988281 90.28230469 40.55976563 90.56460938 41.36328125 90.85546875 C45.37218373 92.59562938 47.24991232 95.38400228 49.0625 99.2890625 C52.19470221 108.34634722 51.49256615 118.17402055 48 127 C45.29396205 131.80728804 42.18175617 135.79775363 37 138 C33.35611141 138.87453326 31.5791347 139.1930449 28 138 C27.690625 139.2065625 27.690625 139.2065625 27.375 140.4375 C25.3930798 145.57247506 22.46045087 150.7913162 18.3203125 154.5078125 C16.57768545 156.47729041 16.68535123 157.6021417 16.8125 160.1875 C16.9053125 162.0746875 16.9053125 162.0746875 17 164 C17.27714844 163.28972656 17.55429687 162.57945312 17.83984375 161.84765625 C18.20207031 160.92855469 18.56429688 160.00945312 18.9375 159.0625 C19.29714844 158.14597656 19.65679687 157.22945312 20.02734375 156.28515625 C21 154 21 154 22 153 C27.92655493 153.39369664 32.58133657 154.77904037 37.9609375 157.2109375 C38.70136795 157.53517197 39.4417984 157.85940643 40.20466614 158.19346619 C42.59917043 159.24431384 44.98704631 160.30936166 47.375 161.375 C49.858748 162.47113504 52.34391187 163.56401263 54.82920837 164.65663147 C56.49207156 165.38793818 58.15439577 166.12047165 59.81617737 166.85423279 C64.90212651 169.09601476 70.00735655 171.28069485 75.14453125 173.40234375 C76.34609863 173.90008301 77.54766602 174.39782227 78.78564453 174.91064453 C81.00654028 175.82584357 83.2300761 176.73466935 85.45654297 177.63623047 C86.43381348 178.04115723 87.41108398 178.44608398 88.41796875 178.86328125 C89.26125732 179.20657471 90.1045459 179.54986816 90.97338867 179.90356445 C93 181 93 181 95 184 C94.76029246 185.82053744 94.50807887 187.64143431 94.15844727 189.4440918 C92.57073092 197.63028526 92.57073092 197.63028526 95.5625 205.1875 C96.41328125 206.363125 96.41328125 206.363125 97.28125 207.5625 C105.92988202 219.82783269 107.36734928 237.54036287 110.14453125 251.90625 C112.91038209 266.01349091 116.61612538 279.60396436 121.14208984 293.25 C121.87234277 295.59079938 122.45696802 297.88376707 122.95703125 300.28125 C124.07079871 304.71597707 124.94803201 307.7488 129.00195312 310.22070312 C134.23213562 312.78233789 140.15944444 315.42327963 146 316 C148.228153 315.29231231 148.228153 315.29231231 150 314 C150.94931425 311.73137688 150.94931425 311.73137688 151.4375 309.125 C152.34647079 305.79691649 152.9187646 304.10034961 155.125 301.375 C159.7355344 299.16996181 164.09874025 299.02328108 168.9609375 300.66015625 C174.6610036 303.53508042 177.90310472 307.837065 179.97265625 313.8046875 C183.18774401 325.55845019 182.96902386 337.50869441 177.7109375 348.7578125 C174.57547543 353.83826708 171.40339424 356.51443865 166 359 C168.92530916 360.53558648 171.8563988 361.71938236 174.97265625 362.8125 C192.0989525 368.9395679 209.45476766 375.44891315 223 388 C223.77472656 388.66128906 224.54945313 389.32257813 225.34765625 390.00390625 C232.22774183 396.24077849 239.30645188 406.40445233 240.17700195 415.93847656 C240.69141149 434.42442871 238.4822405 452.25644347 225.1875 466.4375 C214.12874481 476.44304041 200.11795496 480.89895007 185.2734375 480.3125 C176.21157741 479.44740596 168.57845294 478.10451834 160.68359375 473.53515625 C153.04100248 469.4587605 145.55620308 468.52601656 137.02380371 467.73669434 C132.60757858 467.3225197 128.20307266 466.80534707 123.796875 466.296875 C122.89519592 466.19441467 121.99351685 466.09195435 121.06451416 465.98638916 C88.70037725 462.22463593 56.40311023 454.8418479 25.49609375 444.609375 C24.32560486 444.22204193 23.15511597 443.83470886 21.94915771 443.43563843 C16.10373899 441.49233242 10.27093103 439.51792413 4.45068359 437.50048828 C2.29656369 436.76851285 0.1424302 436.03657744 -2.01171875 435.3046875 C-2.98839005 434.95621765 -3.96506134 434.6077478 -4.97132874 434.24871826 C-15.12686472 430.82882501 -22.44972789 432.85057894 -32.33203125 436.28125 C-34.34901364 436.96157897 -36.36619296 437.64132432 -38.38354492 438.32055664 C-39.43190521 438.67667023 -40.4802655 439.03278381 -41.56039429 439.39968872 C-78.76165657 451.98629325 -116.69688727 461.85383353 -155.796875 466.296875 C-156.69452576 466.40046326 -157.59217651 466.50405151 -158.51702881 466.61077881 C-162.83494774 467.10382838 -167.15198796 467.56353486 -171.47949219 467.96386719 C-180.70578641 468.90095351 -187.78694003 470.70108621 -195.84936523 475.36743164 C-209.00548914 482.18455683 -225.31783029 481.33432626 -239.19140625 477.328125 C-251.21882854 473.42798806 -259.95403231 465.01908843 -265.6484375 453.98046875 C-271.78206941 440.45456948 -274.68549902 424.96192919 -271.09375 410.30078125 C-268.65737394 404.20203221 -265.34773902 398.90616422 -261 394 C-260.37609375 393.28328125 -259.7521875 392.5665625 -259.109375 391.828125 C-243.24861992 374.79249918 -219.67709858 366.66161549 -198 360 C-198.88751953 359.41605469 -198.88751953 359.41605469 -199.79296875 358.8203125 C-207.80702631 353.14641204 -211.35670354 347.01554431 -213.3125 337.4375 C-214.86859673 326.75429744 -214.6142411 315.61373926 -208.1875 306.4375 C-204.92727209 302.59394699 -201.90425621 300.40680184 -196.796875 299.69140625 C-193.03631823 299.48594537 -190.54989396 299.73700724 -187.125 301.375 C-184.46892212 304.65603739 -183.75021651 307.6714074 -182.87109375 311.7578125 C-182.20666869 314.1129409 -182.20666869 314.1129409 -180.20996094 315.16870117 C-174.86018388 317.18107312 -168.64573144 314.35942897 -163.66015625 312.18359375 C-155.78052851 307.71061307 -154.07857555 299.2416982 -151.78125 291.01171875 C-151.18513263 288.67508185 -150.59138014 286.33784034 -150 284 C-149.37029661 281.75490011 -148.73493243 279.51137981 -148.09375 277.26953125 C-144.96340992 266.05016355 -142.48709017 254.76396286 -140.375 243.3125 C-137.5603757 228.05623996 -133.3803463 214.68935201 -126 201 C-124.27572551 197.55145102 -125.85712513 193.29123849 -126.59179688 189.5859375 C-126.91796875 187.6015625 -126.91796875 187.6015625 -127 184 C-124.19028938 180.43617525 -121.13964491 178.94742659 -116.98828125 177.2578125 C-115.77060059 176.75531982 -114.55291992 176.25282715 -113.29833984 175.73510742 C-111.96982117 175.19817081 -110.64120539 174.66147439 -109.3125 174.125 C-107.2362748 173.27518853 -105.16139161 172.42215887 -103.08660889 171.5688324 C-101.63887816 170.97358011 -100.19066779 170.37949315 -98.74200439 169.78651428 C-93.39746996 167.59384056 -88.08615615 165.33087236 -82.78515625 163.03515625 C-81.28022037 162.38583933 -79.77525651 161.73658725 -78.27026367 161.08740234 C-76.08255683 160.14333544 -73.89614243 159.19675211 -71.71328735 158.24151611 C-69.68468179 157.35465201 -67.6515513 156.47902588 -65.6171875 155.60546875 C-63.87864502 154.84979614 -63.87864502 154.84979614 -62.10498047 154.07885742 C-59.1156205 153.04017353 -57.12390812 152.59338842 -54 153 C-51.77174356 155.22825644 -51.30760631 156.65761628 -50.375 159.625 C-50.11460937 160.44226563 -49.85421875 161.25953125 -49.5859375 162.1015625 C-49.39257812 162.72804687 -49.19921875 163.35453125 -49 164 C-48.2763456 158.67738782 -48.2763456 158.67738782 -50.41796875 153.96875 C-51.65520751 152.63917999 -52.90836588 151.32427356 -54.17578125 150.0234375 C-57.07476245 146.8078652 -60 142.44046101 -60 138 C-60.56976563 138.185625 -61.13953125 138.37125 -61.7265625 138.5625 C-65.84651642 139.35534337 -69.33287677 137.85266122 -73 136 C-79.87551019 130.38401215 -81.93901625 123.08889248 -82.8125 114.5625 C-83.27832625 106.17762742 -82.41073478 99.68384884 -77 93 C-73.6 90 -73.6 90 -71 90 C-71.03480469 89.09121094 -71.06960937 88.18242188 -71.10546875 87.24609375 C-71.56709936 65.81324417 -65.52659256 46.9186308 -51 31 C-49.91945263 30.14437693 -48.82949137 29.30050882 -47.73046875 28.46875 C-44.81775757 26.29322352 -44.81775757 26.29322352 -44.3359375 23.38671875 C-44.34882813 22.49597656 -44.36171875 21.60523437 -44.375 20.6875 C-44.04270208 13.18562265 -41.84271644 8.47799623 -36.4375 3.25 C-25.44225499 -5.66451219 -12.38473503 -6.27567291 0 0 Z M-32 12.125 C-35.0090001 16.45043765 -35.7038447 19.76026722 -35 25 C-32.11823577 30.55006443 -28.58775109 33.93445543 -22.8125 36.3125 C-16.6523156 37.42335293 -10.74992211 37.21937948 -5.125 34.25 C-1.48392202 31.62842386 0.99279381 29.01441239 3 25 C3.50921186 18.88945765 3.08852244 15.86202669 -1 11 C-5.5431105 6.69600058 -9.62733671 5.23337672 -15.8125 4.625 C-22.12476963 4.81847953 -27.89062041 7.29322227 -32 12.125 Z M-43.25 37.0625 C-44.16977252 38.03874978 -45.08625678 39.01810466 -46 40 C-46.46664062 40.44988281 -46.93328125 40.89976563 -47.4140625 41.36328125 C-59.42597093 53.7927159 -62.34997819 71.95733488 -62.30078125 88.50390625 C-62.01559708 91.81870928 -61.61369151 94.10183163 -60 97 C-56.26859606 98.24380131 -54.95240135 97.58150392 -51.25 96.375 C-50.10015625 96.00503906 -48.9503125 95.63507813 -47.765625 95.25390625 C-45.17076997 94.38985183 -42.57687414 93.52339841 -39.984375 92.65234375 C-39.32018555 92.42949707 -38.65599609 92.20665039 -37.97167969 91.97705078 C-36.08337587 91.34060167 -34.19786634 90.69588011 -32.3125 90.05078125 C-15.26161119 84.64194978 1.11022892 89.30322257 17.09765625 95.94921875 C20.09418606 97.03409966 22.83049277 97.6794373 26 98 C28.59230504 96.21220342 28.98667605 95.03997185 30 92 C31.42639889 72.87222467 26.90965369 54.8480156 14.8125 39.6875 C12.19738592 37.18861321 10.4671512 35.91777532 7 35 C6.57589844 35.39832031 6.15179688 35.79664063 5.71484375 36.20703125 C-1.23986111 42.48919322 -8.24112244 45.36261062 -17.75390625 45.21875 C-26.24745112 44.39155259 -33.00027345 40.99972655 -39 35 C-41.2629951 34.77475846 -41.2629951 34.77475846 -43.25 37.0625 Z M-37.10888672 100.32421875 C-39.95450858 101.34108956 -42.82116176 102.29338159 -45.6875 103.25 C-47.05455078 103.72179687 -47.05455078 103.72179687 -48.44921875 104.203125 C-50.95251921 104.9851668 -53.42070374 105.53526193 -56 106 C-56.6676364 121.48545533 -55.00240869 134.42063488 -45 147 C-37.69573298 154.87264541 -29.71791538 160.37281184 -18.828125 161.15625 C-7.35588144 161.58378703 1.74163676 157.78755059 10.12890625 150.03125 C19.77575531 139.92677053 24.43670256 127.83479828 24.125 114 C24.11597656 113.22527344 24.10695313 112.45054687 24.09765625 111.65234375 C24.07439388 109.76809157 24.0385364 107.88400168 24 106 C23.41476562 105.85304688 22.82953125 105.70609375 22.2265625 105.5546875 C15.10781431 103.69483437 8.15775853 101.43835492 1.19580078 99.06982422 C0.45185059 98.8173291 -0.29209961 98.56483398 -1.05859375 98.3046875 C-1.72173584 98.07765137 -2.38487793 97.85061523 -3.06811523 97.61669922 C-15.00814893 93.80518335 -25.71557503 96.25253861 -37.10888672 100.32421875 Z M-70 99 C-73.5418139 103.61975726 -74.13164235 108.32292372 -74 114 C-72.96202742 120.3946525 -71.18637104 125.01048382 -66 129 C-65.34 129 -64.68 129 -64 129 C-64.02283754 124.93626193 -64.10019964 120.87532424 -64.1875 116.8125 C-64.19330078 115.66201172 -64.19910156 114.51152344 -64.20507812 113.32617188 C-64.14783153 106.39256406 -64.14783153 106.39256406 -67.55078125 100.69921875 C-68.35902344 100.13847656 -69.16726562 99.57773438 -70 99 Z M37 99 C33.59581651 102.6918192 32.49345414 104.94411048 32.390625 109.95703125 C32.35839844 111.06884766 32.32617188 112.18066406 32.29296875 113.32617188 C32.27878906 114.47666016 32.26460938 115.62714844 32.25 116.8125 C32.22035156 117.98232422 32.19070313 119.15214844 32.16015625 120.35742188 C32.08960291 123.23835009 32.03683271 126.11847578 32 129 C36.57133316 127.34873459 36.57133316 127.34873459 39.25 123.5 C42.56315783 116.02172947 42.63953249 109.35558042 39.88671875 101.71484375 C39.11661115 99.81285307 39.11661115 99.81285307 37 99 Z M-67.17407227 166.09545898 C-68.75569908 166.78133339 -68.75569908 166.78133339 -70.36927795 167.48106384 C-71.50683029 167.98102371 -72.64438263 168.48098358 -73.81640625 168.99609375 C-74.98380844 169.50423111 -76.15121063 170.01236847 -77.35398865 170.53590393 C-80.45714194 171.88788759 -83.55812314 173.2446357 -86.65820312 174.6036377 C-89.81389594 175.98546703 -92.97255962 177.3604706 -96.13085938 178.73632812 C-100.74027715 180.74638744 -105.34907138 182.75783916 -109.95532227 184.77514648 C-111.34739647 185.38470436 -111.34739647 185.38470436 -112.76759338 186.00657654 C-114.19234373 186.64059205 -115.60518411 187.30259206 -117 188 C-115.72041587 211.4590424 -103.60882865 232.37246506 -88.875 249.9375 C-72.21672583 270.52524611 -66.90688599 298.60524108 -63 324 C-48.81 324 -34.62 324 -20 324 C-17.89027794 308.02639012 -15.83087728 292.0533005 -14.01745605 276.04333496 C-13.84073488 274.48672063 -13.66213954 272.93031781 -13.48156738 271.37414551 C-13.226697 269.17061579 -12.97950114 266.96635127 -12.734375 264.76171875 C-12.59225586 263.50319092 -12.45013672 262.24466309 -12.30371094 260.94799805 C-11.66503117 252.64567453 -12.09778785 244.92296801 -13.49609375 236.72265625 C-13.72559471 235.3229081 -13.72559471 235.3229081 -13.95973206 233.8948822 C-14.28135773 231.94224333 -14.60675365 229.99022197 -14.93579102 228.03881836 C-15.44005048 225.04736965 -15.93291499 222.054212 -16.42382812 219.06054688 C-16.73893025 217.15614183 -17.0546628 215.25184096 -17.37109375 213.34765625 C-17.51904892 212.45393814 -17.66700409 211.56022003 -17.81944275 210.63941956 C-17.95951248 209.81103073 -18.09958221 208.98264191 -18.24389648 208.12915039 C-18.36603012 207.40208389 -18.48816376 206.6750174 -18.61399841 205.92591858 C-19.00004981 203.79380128 -19.00004981 203.79380128 -20 201 C-22.42295696 200.0334961 -22.42295696 200.0334961 -25.375 199.3125 C-39.73245242 194.82259514 -48.29584946 184.44454659 -55.51953125 171.83203125 C-56.86280748 169.26243951 -57.98331559 166.71281158 -59 164 C-62.36462137 164 -64.10431353 164.75506163 -67.17407227 166.09545898 Z M-39 164 C-40.17208477 174.09486546 -40.17208477 174.09486546 -37.53515625 183.546875 C-35.4523813 185.41106169 -33.47852196 186.71133327 -31 188 C-30.24460938 188.41378906 -29.48921875 188.82757813 -28.7109375 189.25390625 C-21.38226751 192.86787238 -15.36162492 193.67238184 -7.56640625 191.08984375 C-2.20841883 188.81453402 3.21214461 185.48659241 7 181 C7.40988049 179.07435138 7.40988049 179.07435138 7.29296875 176.98828125 C7.28330078 176.23095703 7.27363281 175.47363281 7.26367188 174.69335938 C7.23853516 173.90767578 7.21339844 173.12199219 7.1875 172.3125 C7.17396484 171.51521484 7.16042969 170.71792969 7.14648438 169.89648438 C7.11117089 167.93070033 7.05736447 165.96526418 7 164 C5.89591797 164.41572266 5.89591797 164.41572266 4.76953125 164.83984375 C3.79371094 165.20207031 2.81789063 165.56429687 1.8125 165.9375 C0.84957031 166.29714844 -0.11335938 166.65679687 -1.10546875 167.02734375 C-13.0062933 171.02640625 -24.45152796 169.24751778 -36 165 C-36.99 164.67 -37.98 164.34 -39 164 Z M27 164 C26.38125 165.34191406 26.38125 165.34191406 25.75 166.7109375 C19.03055103 180.9313044 10.47895225 193.09672498 -4.83203125 198.73046875 C-5.99065674 199.16125732 -7.14928223 199.5920459 -8.34301758 200.03588867 C-9.21982178 200.35404541 -10.09662598 200.67220215 -11 201 C-10.823479 202.1144751 -10.64695801 203.2289502 -10.46508789 204.37719727 C-9.80668048 208.53499113 -9.14896623 212.6928944 -8.49145508 216.85083008 C-8.20746284 218.64610714 -7.92328578 220.44135497 -7.63891602 222.23657227 C-7.22883608 224.82560581 -6.81943371 227.41474575 -6.41015625 230.00390625 C-6.28407486 230.79898087 -6.15799347 231.59405548 -6.02809143 232.41322327 C-5.78958473 233.92366569 -5.55420746 235.43460632 -5.32229614 236.94607544 C-5.04104464 238.73843128 -4.72905459 240.52590965 -4.41186523 242.31225586 C-3.26564965 252.57519983 -4.3346372 262.63571826 -5.53125 272.84765625 C-5.68882337 274.23572251 -5.84575277 275.62386201 -6.0020752 277.0120697 C-6.41058941 280.62656255 -6.82674614 284.24013081 -7.24493408 287.85351562 C-7.91614356 293.66648846 -8.57464311 299.48091956 -9.23472595 305.29516411 C-9.46535395 307.31787138 -9.69876837 309.34024107 -9.93273926 311.36256409 C-10.07288452 312.58491257 -10.21302979 313.80726105 -10.35742188 315.06665039 C-10.48177612 316.14298233 -10.60613037 317.21931427 -10.73425293 318.32826233 C-11.0494888 321.05005791 -11.0494888 321.05005791 -11 324 C2.86 324 16.72 324 31 324 C31.53625 320.638125 32.0725 317.27625 32.625 313.8125 C36.82245332 289.14585367 44.10532002 265.27750403 60.31103516 245.76513672 C72.84833106 230.61313158 85.47173774 208.34177036 85 188 C71.48326439 181.94569644 57.95035713 175.92691566 44.35437012 170.05236816 C42.51889243 169.25817458 40.68570124 168.45870343 38.85253906 167.65917969 C37.73588867 167.17868164 36.61923828 166.69818359 35.46875 166.203125 C34.48326172 165.77676758 33.49777344 165.35041016 32.48242188 164.91113281 C29.97134239 163.82772077 29.97134239 163.82772077 27 164 Z M-122 213 C-128.22235902 225.55063053 -130.47246415 239.27884606 -133.1796875 252.9140625 C-137.34534756 273.79552686 -142.94288872 293.73794016 -151.37670898 313.31787109 C-152.11581725 315.01358391 -152.11581725 315.01358391 -152 317 C-152.72074707 317.1247168 -153.44149414 317.24943359 -154.18408203 317.37792969 C-156.97790064 317.99511798 -159.41061299 318.86865892 -162.0546875 319.953125 C-162.99957031 320.324375 -163.94445312 320.695625 -164.91796875 321.078125 C-166.887989 321.85884637 -168.85167172 322.65575443 -170.80859375 323.46875 C-178.87431732 326.58530169 -178.87431732 326.58530169 -183.01953125 324.90234375 C-187.99988505 321.7235334 -190.8547432 318.34467079 -192.3125 312.625 C-192.539375 311.42875 -192.76625 310.2325 -193 309 C-195.86011611 309.31779068 -197.72774802 309.81582954 -200.125 311.4375 C-205.30199041 318.51272022 -205.43563387 326.24434793 -204.5703125 334.72265625 C-203.50178023 340.86305743 -201.11042196 346.35387991 -195.91772461 350.15966797 C-186.99089951 354.0713334 -176.19121221 349.63564007 -167.59985352 346.62988281 C-165.44379094 345.87719618 -163.2791717 345.15545566 -161.11132812 344.4375 C-146.81536488 339.61647483 -133.43356343 334.13813078 -126.16015625 320.19921875 C-125.63976273 319.21063873 -125.63976273 319.21063873 -125.1088562 318.2020874 C-121.5023318 311.22815663 -118.51267066 304.04449985 -115.625 296.75 C-115.07230493 295.36673237 -114.51948694 293.98351385 -113.96655273 292.6003418 C-112.56933653 289.09341964 -111.18742131 285.58068358 -109.81085205 282.06561279 C-109.01392474 280.03547271 -108.21065954 278.00794843 -107.40576172 275.98095703 C-105.93376835 272.26737727 -104.49503559 268.54149403 -103.0625 264.8125 C-102.61922363 263.69133789 -102.17594727 262.57017578 -101.71923828 261.41503906 C-101.32849121 260.37702148 -100.93774414 259.33900391 -100.53515625 258.26953125 C-100.01514038 256.91758667 -100.01514038 256.91758667 -99.48461914 255.53833008 C-98.87801664 252.36107758 -99.53105875 250.8372121 -101 248 C-101.99475485 246.67186785 -103.04054133 245.38095446 -104.125 244.125 C-111.4287689 234.97622893 -116.48654192 224.11824563 -120 213 C-120.66 213 -121.32 213 -122 213 Z M88 213 C87.63648438 213.95519531 87.27296875 214.91039062 86.8984375 215.89453125 C82.26751029 227.88696603 77.18282867 238.1857321 68.46484375 247.78515625 C66.5414714 252.00631742 67.31947 253.79338201 68.84936523 258.03930664 C69.22907471 259.01633545 69.60878418 259.99336426 70 261 C70.40484619 262.13236084 70.80969238 263.26472168 71.22680664 264.43139648 C72.63670817 268.36406333 74.09093823 272.27761538 75.5625 276.1875 C75.82500549 276.88676605 76.08751099 277.5860321 76.35797119 278.30648804 C79.83922127 287.55781462 83.44522617 296.74043697 87.375 305.8125 C87.75470947 306.69252686 88.13441895 307.57255371 88.52563477 308.47924805 C96.19921936 325.84033691 104.33025547 334.84947389 122 342 C126.7167259 343.77228587 131.46852452 345.41141355 136.25 347 C137.42143555 347.39815918 138.59287109 347.79631836 139.79980469 348.20654297 C147.14533275 350.55053016 154.26799044 352.19062685 162 351 C166.48852223 348.6228709 169.77448913 345.10206501 171.5 340.23828125 C173.47620891 331.39165854 174.09606774 322.30199171 170 314 C167.77009471 310.84777425 167.77009471 310.84777425 165 309 C163.68 309 162.36 309 161 309 C160.86464844 309.65226562 160.72929687 310.30453125 160.58984375 310.9765625 C159.15413306 316.80537597 157.55093978 320.20250169 152.81640625 323.94140625 C150.76225886 325.13855451 149.3625581 325.6646325 147 326 C144.39038086 325.28735352 144.39038086 325.28735352 141.46484375 324.12890625 C140.40845703 323.71962891 139.35207031 323.31035156 138.26367188 322.88867188 C137.16603516 322.45103516 136.06839844 322.01339844 134.9375 321.5625 C132.76080754 320.70532386 130.58249025 319.85225892 128.40234375 319.00390625 C127.43804443 318.62049072 126.47374512 318.2370752 125.48022461 317.84204102 C122.96308591 316.83926003 122.96308591 316.83926003 120 317 C119.75636719 316.23945313 119.51273437 315.47890625 119.26171875 314.6953125 C118.25452412 311.74544834 117.1913017 308.84145617 116.08203125 305.9296875 C107.82846115 284.05909777 102.69905685 261.82014135 98.13916016 238.93139648 C96.3035471 229.92918714 94.12909661 221.25819322 90 213 C89.34 213 88.68 213 88 213 Z M-93 261 C-93.39678955 262.05050537 -93.7935791 263.10101074 -94.20239258 264.18334961 C-107.52606936 299.39971857 -107.52606936 299.39971857 -114.0625 314.375 C-114.47798096 315.33913818 -114.89346191 316.30327637 -115.3215332 317.29663086 C-121.95937557 332.21074501 -130.14309621 340.24010877 -145 347 C-145 347.33 -145 347.66 -145 348 C-135.44776419 347.39844997 -125.99814582 346.3515263 -116.51733398 345.06298828 C-114.97031929 344.8551634 -113.42244826 344.65361171 -111.8737793 344.45849609 C-90.35021762 341.88110021 -90.35021762 341.88110021 -72.09375 331.18359375 C-67.19019908 321.39400458 -75.71318845 299.29842182 -78.81835938 289.38818359 C-81.9521121 279.97437607 -85.34399044 270.23010679 -91 262 C-91.66 261.67 -92.32 261.34 -93 261 Z M60 261 C48.27882141 277.54754624 43.72281399 297.94400326 40.0625 317.5625 C39.93391602 318.234021 39.80533203 318.90554199 39.67285156 319.59741211 C38.9822905 323.64590409 38.94085129 327.02243608 40 331 C51.944829 343.863662 75.49197817 344.04765545 91.8125 346.25 C93.10575195 346.4253125 94.39900391 346.600625 95.73144531 346.78125 C96.96088867 346.94109375 98.19033203 347.1009375 99.45703125 347.265625 C100.54991455 347.40774414 101.64279785 347.54986328 102.76879883 347.69628906 C106.19717185 348.01853281 109.55853792 348.0511014 113 348 C111.31116228 346.87410819 109.60175677 345.77428091 107.8359375 344.7734375 C94.8929868 337.4185544 88.92399743 329.34466977 83 316 C82.23328625 314.32412113 81.46635092 312.64834363 80.69921875 310.97265625 C73.32893543 294.62823992 67.16666181 277.82499107 61 261 C60.67 261 60.34 261 60 261 Z M-68.56735229 339.01014709 C-74.19773931 346.83038226 -88.06004825 348.72558411 -97.0557251 350.37750244 C-101.29178416 351.06274544 -105.54401524 351.61715269 -109.80133057 352.15206909 C-113.7445066 352.64982229 -117.68247686 353.18631381 -121.62109375 353.71875 C-122.81109985 353.8786869 -122.81109985 353.8786869 -124.02514648 354.04185486 C-160.59188912 358.98714526 -200.63318322 365.04813254 -233 384 C-233.91821533 384.53125488 -233.91821533 384.53125488 -234.85498047 385.07324219 C-247.38972664 392.40702345 -258.98257843 401.44994711 -263 416 C-264.44339974 430.55554689 -262.13460109 445.07256987 -252.94140625 456.88671875 C-245.02914257 465.49946453 -235.3691734 470.36801528 -223.68359375 471.15625 C-213.48945339 471.51237717 -203.15113387 469.57556693 -194 465 C-195.82332589 460.20500355 -198.16864669 455.76083613 -200.5625 451.23046875 C-203.4343179 444.77668232 -204.36478538 438.65295886 -204.3125 431.625 C-204.31048584 430.88693115 -204.30847168 430.1488623 -204.30639648 429.38842773 C-204.18578861 422.79688253 -202.96216989 416.92433977 -200 411 C-197.66752185 410.37147066 -195.30708533 409.84464754 -192.9375 409.375 C-191.64714844 409.11460937 -190.35679687 408.85421875 -189.02734375 408.5859375 C-188.02832031 408.39257812 -187.02929688 408.19921875 -186 408 C-187.76581168 405.82409133 -187.76581168 405.82409133 -189.96777344 405.75708008 C-190.75700195 405.76118896 -191.54623047 405.76529785 -192.359375 405.76953125 C-193.22820312 405.77146484 -194.09703125 405.77339844 -194.9921875 405.77539062 C-195.90226562 405.78763672 -196.81234375 405.79988281 -197.75 405.8125 C-198.64460938 405.81314453 -199.53921875 405.81378906 -200.4609375 405.81445312 C-205.0969035 405.84522281 -209.43054893 406.15579057 -214 407 C-215.62394748 407.0620775 -217.25005297 407.08712041 -218.875 407.0625 C-220.04675781 407.04896484 -220.04675781 407.04896484 -221.2421875 407.03515625 C-221.82226562 407.02355469 -222.40234375 407.01195312 -223 407 C-223.6875 405.1875 -223.6875 405.1875 -224 403 C-222.53209363 400.84338413 -221.34899949 400.12085723 -218.890625 399.26953125 C-203.43183624 396.59397166 -184.59564866 394.93623423 -171 404 C-167.62741309 404.1367265 -164.3265812 403.52524966 -161 403 C-159.8759375 402.8246875 -158.751875 402.649375 -157.59375 402.46875 C-150.80726857 401.35737513 -150.80726857 401.35737513 -145.625 397.25 C-145.08875 396.1775 -144.5525 395.105 -144 394 C-138.37716743 385.77480193 -128.59791417 383.00843631 -119.75 379.5 C-118.11415 378.83806533 -116.47873425 378.17505653 -114.84375 377.51098633 C-110.91949337 375.92358126 -106.98658528 374.35939806 -103.0480957 372.80767822 C-101.24844251 372.09797472 -99.45117321 371.3822324 -97.65429688 370.66552734 C-72.96349819 360.8583148 -72.96349819 360.8583148 -61 366 C-57.96230643 367.64469218 -55.0808589 369.49042217 -52.1875 371.375 C-40.68441495 378.61268333 -25.48725702 387.2332707 -11.31640625 385.140625 C-3.48993354 381.28678009 0.2833049 368.48595282 3.08984375 360.875 C4.97861498 354.90875267 5.15295789 349.46596994 5.125 343.25 C5.12886719 342.37472656 5.13273437 341.49945313 5.13671875 340.59765625 C5.13542969 339.76621094 5.13414062 338.93476563 5.1328125 338.078125 C5.13168457 337.31918945 5.13055664 336.56025391 5.12939453 335.77832031 C5.19302611 333.97505033 5.19302611 333.97505033 4 333 C1.95201735 332.86375046 -0.1006838 332.79805096 -2.15283203 332.75952148 C-3.47155304 332.73377548 -4.79027405 332.70802948 -6.1489563 332.6815033 C-12.20455837 332.59210144 -18.26033623 332.53139008 -24.31640625 332.48510742 C-27.5121001 332.45840155 -30.70629427 332.40973852 -33.90136719 332.34155273 C-37.76064479 332.25939981 -41.61849883 332.21689248 -45.47860336 332.20204353 C-46.94669364 332.18982454 -48.41473909 332.16385671 -49.88232803 332.12359428 C-60.86163909 331.82226379 -60.86163909 331.82226379 -68.56735229 339.01014709 Z M14 333 C13.9906543 333.5576001 13.98130859 334.1152002 13.97167969 334.68969727 C13.65386978 349.85577304 12.44328179 363.44259388 5 377 C5 377.66 5 378.32 5 379 C11.85160835 377.20872984 17.42891928 373.15311655 23.3046875 369.34375 C30.03194286 365.14693015 36.2343814 362.57348282 44.2734375 363.29296875 C56.67184135 366.86883082 68.59821737 371.73175773 80.53857422 376.59814453 C83.73598881 377.89307714 86.94518464 379.15181396 90.16015625 380.40234375 C108.08100975 387.51881671 108.08100975 387.51881671 114 396 C114.27457031 396.7115625 114.54914063 397.423125 114.83203125 398.15625 C115.91568289 400.2761498 115.91568289 400.2761498 118.6875 401.01171875 C122.12018704 401.71201929 125.54968124 402.39180822 129 403 C130.38638672 403.27070313 130.38638672 403.27070313 131.80078125 403.546875 C137.08283832 404.36834577 140.35612003 403.95791141 144.91796875 401.10546875 C151.45856942 397.63269203 157.94490416 397.6822406 165.1875 397.75 C166.2074707 397.75604248 167.22744141 397.76208496 168.27832031 397.76831055 C186.19748188 398.00408899 186.19748188 398.00408899 190.859375 401.32421875 C192 403 192 403 191.6875 405.1875 C191.460625 405.785625 191.23375 406.38375 191 407 C189.62511713 407.02749766 188.25006609 407.0466164 186.875 407.0625 C185.72644531 407.07990234 185.72644531 407.07990234 184.5546875 407.09765625 C182 407 182 407 179.3359375 406.5078125 C174.79675778 405.81683666 170.33464498 405.81580306 165.75 405.8125 C164.83992187 405.80025391 163.92984375 405.78800781 162.9921875 405.77539062 C162.12335938 405.77345703 161.25453125 405.77152344 160.359375 405.76953125 C159.57014648 405.76542236 158.78091797 405.76131348 157.96777344 405.75708008 C155.76581168 405.82409133 155.76581168 405.82409133 154 408 C154.97582031 408.13535156 155.95164062 408.27070313 156.95703125 408.41015625 C167.14457777 410.13388499 167.14457777 410.13388499 169.5625 412.58203125 C170.3125 414.375 170.3125 414.375 171 418 C171.17402344 418.73089844 171.34804688 419.46179688 171.52734375 420.21484375 C173.83327394 433.80268035 171.57913646 445.62187676 165.18359375 457.67578125 C163.96459649 460.06952175 162.96265584 462.49354585 162 465 C176.33687227 471.40649824 190.96637493 473.32608375 206 468 C218.02074333 462.48763056 224.26113967 453.54986013 228.97265625 441.515625 C231.95411237 432.36324806 233.12592673 419.99308461 229.375 410.9375 C228.29052977 408.89737181 228.29052977 408.89737181 227 407 C226.55269531 406.31808594 226.10539063 405.63617188 225.64453125 404.93359375 C220.22122312 397.27117181 213.78828337 391.36997067 205.75 386.5625 C204.96625 386.09223389 204.1825 385.62196777 203.375 385.13745117 C168.48037281 364.73479047 126.47778981 358.8622009 87.02148438 353.54541016 C44.76468211 347.835612 44.76468211 347.835612 35 338 C34.45214844 337.11957031 33.90429688 336.23914063 33.33984375 335.33203125 C30.75590242 332.75671744 30.33606456 332.64869458 26.890625 332.51171875 C25.34299393 332.54478779 23.79574084 332.60418893 22.25 332.6875 C21.06083984 332.72133789 21.06083984 332.72133789 19.84765625 332.75585938 C17.8976238 332.81459529 15.94856688 332.90427346 14 333 Z M-116 387 C-116.91668457 387.37012207 -117.83336914 387.74024414 -118.77783203 388.12158203 C-121.04640083 389.04448825 -123.30627593 389.98488399 -125.5625 390.9375 C-126.76003906 391.44152344 -127.95757812 391.94554687 -129.19140625 392.46484375 C-132.09083151 394.04964782 -133.15245319 395.34395989 -135 398 C-133.94127686 397.83918945 -132.88255371 397.67837891 -131.79174805 397.51269531 C-112.85114519 394.64554785 -93.91024026 391.85419439 -74.875 389.6875 C-73.82437881 389.56634827 -73.82437881 389.56634827 -72.75253296 389.44274902 C-63.18100918 388.34630791 -53.61633099 387.56297867 -44 387 C-70.78222658 365.24102121 -86.50008967 375.02637602 -116 387 Z M33.5 373.4375 C32.44296875 373.99308594 31.3859375 374.54867188 30.296875 375.12109375 C27.03773095 376.97849694 23.9011787 378.9658436 20.75 381 C3.66178731 391.63944671 -15.19337513 394.17740042 -34.9425354 394.85064697 C-86.24427238 396.68241512 -136.91798409 406.40116325 -187.11074829 416.61618042 C-189.40615963 417.08251522 -191.70280918 417.54251714 -194 418 C-197.60057899 427.40471232 -197.36880936 438.18215741 -193.2890625 447.41015625 C-192.65097656 448.69212891 -192.65097656 448.69212891 -192 450 C-191.59523438 450.96808594 -191.19046875 451.93617188 -190.7734375 452.93359375 C-189.12703238 456.10754587 -187.84604022 457.82232937 -185 460 C-182.25384608 460.22364256 -180.08409097 460.20498788 -177.38671875 459.921875 C-176.26632202 459.82851868 -176.26632202 459.82851868 -175.12329102 459.73327637 C-172.74426669 459.52140303 -170.37323176 459.26880665 -168 459 C-167.25569733 458.91584839 -166.51139465 458.83169678 -165.74453735 458.74499512 C-160.31303411 458.1049318 -154.90621488 457.32469837 -149.5 456.5 C-148.64950073 456.3712851 -147.79900146 456.24257019 -146.92272949 456.10995483 C-98.2908647 448.67206753 -52.67585535 433.73459978 -6.27734375 417.8671875 C3.37501415 414.56918009 13.03250577 411.28708083 22.703125 408.04296875 C24.34553917 407.48843521 24.34553917 407.48843521 26.02113342 406.92269897 C42.95462114 401.26256036 55.86046689 398.53414987 73.3125 403.375 C91.58866402 409.53224966 91.58866402 409.53224966 110 408 C108.25844376 401.80780004 103.96409648 396.76881714 98.49291992 393.50390625 C91.1506391 389.92001531 83.69740279 386.69839703 76.10131836 383.69506836 C74.19678932 382.9411771 72.29651153 382.17726538 70.39648438 381.41210938 C51.96384937 372.56804117 51.96384937 372.56804117 33.5 373.4375 Z M45.375 409.75 C44.60244873 409.95391357 43.82989746 410.15782715 43.03393555 410.36791992 C27.82696326 414.55206592 12.92549165 419.9196786 -2 425 C1.51461201 427.34307467 5.11498968 428.49798596 9.09375 429.79296875 C9.90402145 430.05986511 10.71429291 430.32676147 11.54911804 430.60174561 C14.19726204 431.47042342 16.84815281 432.33019709 19.5 433.1875 C20.40569733 433.48101349 21.31139465 433.77452698 22.24453735 434.07693481 C86.33098648 455.00657343 86.33098648 455.00657343 153 460 C158.76800827 455.54345467 162.69152544 446.07079522 164 439 C164.11920787 436.54376334 164.17522906 434.08409708 164.1875 431.625 C164.20167969 430.33851563 164.21585938 429.05203125 164.23046875 427.7265625 C164.00585872 424.09473259 163.21165136 421.40174795 162 418 C156.37885632 416.83127371 150.75553242 415.67394087 145.12988281 414.52709961 C143.21647995 414.13536784 141.30370999 413.74053137 139.39160156 413.3425293 C136.64288286 412.77094994 133.89208071 412.21057849 131.140625 411.65234375 C130.28631897 411.47219223 129.43201294 411.29204071 128.55181885 411.10643005 C127.75129089 410.94618851 126.95076294 410.78594696 126.12597656 410.62084961 C125.42426331 410.47650986 124.72255005 410.3321701 123.99957275 410.18345642 C121.7006524 409.97253551 120.16624689 410.20687143 118 411 C116.7625 412.2375 116.7625 412.2375 115.5 413.5 C111.95952307 417.04047693 108.94680314 417.17622723 104.0625 417.3125 C90.69610941 417.18209619 77.15011322 413.72141039 64.50512695 409.57543945 C57.60508783 407.3605799 52.26883879 407.90247916 45.375 409.75 Z " fill="#000000" transform="translate(272,18)"/>
</svg>
