<?xml version="1.0" standalone="no"?>
<!DOCTYPE svg PUBLIC "-//W3C//DTD SVG 20010904//EN"
 "http://www.w3.org/TR/2001/REC-SVG-20010904/DTD/svg10.dtd">
<svg version="1.0" xmlns="http://www.w3.org/2000/svg"
 width="512.000000pt" height="512.000000pt" viewBox="0 0 512.000000 512.000000"
 preserveAspectRatio="xMidYMid meet">

<g transform="translate(0.000000,512.000000) scale(0.100000,-0.100000)"
fill="#74613c" stroke="none">
<path d="M2413 5101 c-28 -13 -49 -33 -66 -63 -24 -40 -452 -1000 -537 -1203
-125 -298 -144 -509 -90 -985 44 -382 48 -429 39 -501 -18 -152 -83 -257 -249
-405 -177 -157 -167 -150 -193 -127 -124 111 -319 102 -433 -19 -40 -41 -72
-102 -80 -148 -12 -79 -10 -77 -63 -83 -101 -12 -199 -85 -243 -182 -32 -69
-32 -191 0 -252 12 -23 22 -46 22 -51 0 -5 -53 -55 -118 -112 -64 -57 -122
-112 -129 -124 -37 -65 30 -144 99 -117 20 7 98 73 246 205 l23 20 279 -279
c154 -154 280 -284 280 -288 0 -5 -44 -61 -98 -125 -107 -127 -122 -149 -122
-182 0 -29 53 -80 82 -80 36 0 60 22 171 154 l102 122 45 -18 c181 -69 395 57
419 246 l6 50 65 16 c86 20 151 60 195 117 85 111 85 266 -1 378 l-35 46 192
230 c204 246 270 335 308 417 14 29 27 52 31 52 3 0 22 -33 42 -73 46 -92 61
-112 270 -364 96 -114 177 -214 182 -221 5 -8 -7 -30 -32 -60 -51 -61 -68 -96
-80 -159 -32 -178 89 -342 271 -368 44 -6 47 -8 47 -35 0 -50 41 -141 83 -188
23 -24 64 -56 92 -70 43 -23 62 -27 140 -27 80 0 95 3 139 28 27 15 53 24 57
20 4 -5 55 -66 114 -138 108 -131 133 -154 170 -155 28 0 64 27 76 56 14 39
-7 76 -130 224 -61 74 -111 137 -111 140 0 3 125 131 279 284 l279 278 138
-122 c76 -67 149 -126 162 -131 33 -13 69 -1 92 28 23 29 25 58 7 89 -9 15
-248 233 -286 261 -2 1 4 23 14 49 24 63 17 182 -14 243 -48 93 -164 171 -255
171 -33 0 -33 1 -39 51 -19 155 -152 272 -311 273 -72 0 -148 -24 -187 -60
-16 -14 -28 -6 -145 98 -180 159 -244 262 -263 417 -9 72 -5 119 39 501 32
281 38 463 19 596 -14 105 -51 245 -87 335 -52 130 -533 1212 -558 1256 -32
55 -98 88 -157 78 -50 -8 -59 -8 -117 0 -33 4 -56 1 -87 -14z m497 -776 c138
-313 267 -615 286 -670 75 -225 81 -391 29 -843 -42 -358 -44 -464 -15 -576
42 -159 113 -264 285 -417 69 -61 125 -114 125 -117 0 -4 -98 -105 -217 -224
l-218 -217 -188 227 c-191 231 -244 308 -291 425 -61 153 -59 116 -63 1127
l-3 925 25 -30 c34 -41 118 -215 144 -300 30 -97 51 -225 51 -312 0 -65 3 -77
25 -98 15 -16 36 -25 55 -25 76 0 96 41 86 182 -18 287 -126 549 -327 795
l-59 71 0 333 c0 184 4 329 9 324 4 -6 122 -266 261 -580z m-493 -154 c-122
-150 -208 -306 -261 -471 -41 -126 -54 -194 -63 -322 -9 -137 11 -178 87 -178
19 0 40 9 54 23 20 20 23 36 29 138 11 189 68 372 166 534 l36 60 3 -895 c3
-943 2 -978 -42 -1108 -52 -151 -81 -194 -334 -500 l-185 -223 -224 223 c-208
208 -222 224 -205 239 9 8 73 65 141 124 176 155 248 259 291 421 29 112 27
218 -15 576 -53 459 -46 621 34 853 20 61 150 363 287 673 l249 563 3 -332 2
-331 -53 -67z m-1254 -2455 c47 -20 784 -763 793 -799 30 -123 -92 -226 -202
-169 -22 12 -195 177 -406 389 -393 394 -396 399 -378 478 10 43 43 82 85 101
39 17 68 17 108 0z m2882 -20 c41 -32 61 -87 51 -143 -7 -34 -52 -83 -389
-421 -414 -415 -417 -417 -496 -394 -78 24 -121 99 -100 177 9 34 65 95 377
409 237 237 381 375 407 387 51 25 105 19 150 -15z m-3197 -310 c15 -8 195
-183 399 -388 386 -386 401 -405 386 -467 -27 -113 -140 -158 -229 -92 -67 50
-742 735 -753 764 -15 39 -14 83 3 115 16 30 53 66 76 75 29 11 91 7 118 -7z
m3509 -6 c18 -10 39 -33 48 -49 19 -38 19 -104 1 -139 -8 -15 -185 -197 -394
-406 l-380 -379 -61 5 c-47 3 -67 10 -87 29 -51 48 -66 105 -43 166 11 29 686
714 753 764 48 36 114 39 163 9z"/>
</g>
</svg>
