<?xml version="1.0" encoding="UTF-8"?>
<svg version="1.1" xmlns="http://www.w3.org/2000/svg" width="512" height="512">
<path d="M0 0 C168.96 0 337.92 0 512 0 C512 213.19921875 512 213.19921875 500 226.16015625 C492.41008911 233.41123183 483.17953198 238.13826993 472.58886719 238.11352539 C471.50804871 238.11344986 470.42723022 238.11337433 469.31365967 238.11329651 C468.15312073 238.10813522 466.99258179 238.10297394 465.796875 238.09765625 C464.00748505 238.09553383 464.00748505 238.09553383 462.1819458 238.09336853 C458.37127171 238.08777038 454.56065634 238.07521819 450.75 238.0625 C448.16666752 238.05748476 445.58333411 238.0529219 443 238.04882812 C436.66664663 238.03780155 430.33332751 238.02106524 424 238 C423.8393531 236.90743645 423.8393531 236.90743645 423.67546082 235.7928009 C423.17804967 232.43010317 422.67305027 229.06858509 422.16796875 225.70703125 C421.99970581 224.5617395 421.83144287 223.41644775 421.65808105 222.2364502 C414.93084981 177.73262145 391.39539757 137.37177595 355.06445312 110.46728516 C337.81110782 98.05802647 318.94306591 89.21770692 298.4375 83.75 C297.51614258 83.5034668 296.59478516 83.25693359 295.64550781 83.00292969 C282.70265003 79.70912956 269.87039967 78.58450373 256.5625 78.625 C255.8215509 78.6262085 255.08060181 78.62741699 254.31719971 78.62866211 C209.59706102 78.82536595 170.41806082 96.82873547 138 127 C136.98292969 127.93585938 136.98292969 127.93585938 135.9453125 128.890625 C114.28090594 149.59796943 100.35931578 178.54850851 93.3125 207.3125 C93.12212158 208.08037842 92.93174316 208.84825684 92.7355957 209.6394043 C90.56691395 218.98090874 89.35877621 228.51427755 88 238 C80.51110563 238.1020101 73.02239263 238.17172045 65.53295898 238.21972656 C62.98894556 238.23975435 60.44497765 238.26698464 57.90112305 238.30175781 C54.22954017 238.3506643 50.55856967 238.3730582 46.88671875 238.390625 C45.76230881 238.41127014 44.63789886 238.43191528 43.47941589 238.45318604 C31.17176069 238.45662811 20.88207863 234.3718341 11.83984375 226 C-40.27048891 171.45460507 0 75.43664148 0 0 Z M63 39 C60.15999396 43.26000905 60.36908563 46.99941947 61 52 C63.1934381 56.46811466 65.48705137 58.90863356 70 61 C74.45034602 62.17941143 78.87178256 62.14790414 83.44287109 62.14526367 C84.28091782 62.14862228 85.11896454 62.1519809 85.98240662 62.15544128 C88.74609876 62.16492119 91.50973012 62.16689289 94.2734375 62.16796875 C96.20008367 62.17118331 98.12672959 62.17454753 100.05337524 62.17805481 C104.08995123 62.18403861 108.12650583 62.18589547 112.16308594 62.18530273 C117.32676965 62.18520114 122.49031579 62.19885425 127.6539669 62.21607494 C131.63289007 62.22721174 135.61178016 62.22922143 139.59071732 62.22869301 C141.49403991 62.22987055 143.39736343 62.23427964 145.30067062 62.24202538 C147.96665749 62.25185945 150.63234786 62.24893379 153.29833984 62.24291992 C154.46907799 62.25134918 154.46907799 62.25134918 155.66346741 62.25994873 C161.08714752 62.22897285 166.41107624 61.85144149 170.9609375 58.59765625 C171.66089844 57.83775391 171.66089844 57.83775391 172.375 57.0625 C172.85710937 56.55847656 173.33921875 56.05445313 173.8359375 55.53515625 C176.62903778 51.85163809 176.467947 47.41083373 176 43 C174.10229022 38.46658219 170.950096 35.84406912 167 33 C162.5941927 31.71635558 158.10822308 31.85210741 153.55712891 31.85473633 C152.71908218 31.85137772 151.88103546 31.8480191 151.01759338 31.84455872 C148.25390124 31.83507881 145.49026988 31.83310711 142.7265625 31.83203125 C140.79991633 31.82881669 138.87327041 31.82545247 136.94662476 31.82194519 C132.91004877 31.81596139 128.87349417 31.81410453 124.83691406 31.81469727 C119.67323035 31.81479886 114.50968421 31.80114575 109.3460331 31.78392506 C105.36710993 31.77278826 101.38821984 31.77077857 97.40928268 31.77130699 C95.50596009 31.77012945 93.60263657 31.76572036 91.69932938 31.75797462 C89.03334251 31.74814055 86.36765214 31.75106621 83.70166016 31.75708008 C82.53092201 31.74865082 82.53092201 31.74865082 81.33653259 31.74005127 C73.66694711 31.78385403 68.16816927 32.94585886 63 39 Z M339.625 36.9375 C339.14289063 37.44152344 338.66078125 37.94554687 338.1640625 38.46484375 C335.37096222 42.14836191 335.532053 46.58916627 336 51 C337.89770978 55.53341781 341.049904 58.15593088 345 61 C349.4058073 62.28364442 353.89177692 62.14789259 358.44287109 62.14526367 C359.28091782 62.14862228 360.11896454 62.1519809 360.98240662 62.15544128 C363.74609876 62.16492119 366.50973012 62.16689289 369.2734375 62.16796875 C371.20008367 62.17118331 373.12672959 62.17454753 375.05337524 62.17805481 C379.08995123 62.18403861 383.12650583 62.18589547 387.16308594 62.18530273 C392.32676965 62.18520114 397.49031579 62.19885425 402.6539669 62.21607494 C406.63289007 62.22721174 410.61178016 62.22922143 414.59071732 62.22869301 C416.49403991 62.22987055 418.39736343 62.23427964 420.30067062 62.24202538 C422.96665749 62.25185945 425.63234786 62.24893379 428.29833984 62.24291992 C429.46907799 62.25134918 429.46907799 62.25134918 430.66346741 62.25994873 C436.76236601 62.22511652 442.04322252 61.69587382 446.8125 57.5625 C450.75078863 52.94907617 451.4454588 50.40981587 451.31640625 44.5078125 C450.84957983 40.80778087 449.4743642 38.74186303 447 36 C441.29342587 31.75665001 435.442517 31.85075902 428.55712891 31.85473633 C427.71908218 31.85137772 426.88103546 31.8480191 426.01759338 31.84455872 C423.25390124 31.83507881 420.49026988 31.83310711 417.7265625 31.83203125 C415.79991633 31.82881669 413.87327041 31.82545247 411.94662476 31.82194519 C407.91004877 31.81596139 403.87349417 31.81410453 399.83691406 31.81469727 C394.67323035 31.81479886 389.50968421 31.80114575 384.3460331 31.78392506 C380.36710993 31.77278826 376.38821984 31.77077857 372.40928268 31.77130699 C370.50596009 31.77012945 368.60263657 31.76572036 366.69932938 31.75797462 C364.03334251 31.74814055 361.36765214 31.75106621 358.70166016 31.75708008 C357.53092201 31.74865082 357.53092201 31.74865082 356.33653259 31.74005127 C350.24186608 31.77485931 343.99494277 32.19333561 339.625 36.9375 Z " fill="#000000" transform="translate(0,128)"/>
<path d="M0 0 C0.825 0.70125 1.65 1.4025 2.5 2.125 C3.16 2.66125 3.82 3.1975 4.5 3.75 C9.02198437 7.46448716 12.79644969 11.60175042 16.5 16.125 C17.27472656 17.06214844 18.04945313 17.99929688 18.84765625 18.96484375 C43.18385038 49.07725899 52.77714017 87.05221686 48.8125 125.25 C46.60788645 140.34547891 42.23891856 154.45399755 35.5 168.125 C34.93152344 169.27871094 34.36304688 170.43242187 33.77734375 171.62109375 C17.16836161 203.74188153 -12.13652302 228.1695079 -46.39697266 239.47998047 C-71.55305706 247.19560329 -101.06941853 248.49381373 -126.5 241.125 C-127.15871094 240.94308105 -127.81742187 240.76116211 -128.49609375 240.57373047 C-163.01317471 230.85929043 -192.52458011 206.97212883 -210.5 176.125 C-217.36474948 163.61327847 -222.32178526 151.02271973 -225.5 137.125 C-225.73203125 136.13886719 -225.9640625 135.15273438 -226.203125 134.13671875 C-233.94783355 98.56637879 -225.59961508 61.57882521 -206.69726562 30.96972656 C-203.31042004 25.75133234 -199.45930198 20.91575539 -195.5 16.125 C-194.8709375 15.35414063 -194.241875 14.58328125 -193.59375 13.7890625 C-189.61891514 9.07346296 -185.24090674 5.05690797 -180.5 1.125 C-179.80777344 0.52171875 -179.11554688 -0.0815625 -178.40234375 -0.703125 C-165.66683698 -11.45075678 -151.13110513 -19.27538177 -135.5 -24.875 C-134.40429688 -25.27332031 -133.30859375 -25.67164063 -132.1796875 -26.08203125 C-87.18065767 -41.13809762 -36.01205326 -30.28286297 0 0 Z M-102.375 25.25 C-104.0178131 29.44830016 -104.24801226 33.65004532 -104.5 38.125 C-105.37785156 38.22683594 -106.25570312 38.32867187 -107.16015625 38.43359375 C-115.86070331 40.23475963 -123.63974783 46.83462174 -128.5 54.125 C-133.87212168 64.19772815 -136.40682156 73.71319288 -133.81640625 85.140625 C-130.12002602 96.12240195 -123.69696271 103.30871582 -113.53125 108.69921875 C-107.52290451 111.60189917 -101.42436155 114.17418976 -95.21484375 116.6171875 C-93.55569946 117.27025879 -93.55569946 117.27025879 -91.86303711 117.93652344 C-89.66088048 118.79660349 -87.45476011 119.64661896 -85.24438477 120.48535156 C-71.07100773 125.98298454 -71.07100773 125.98298454 -68.5 131.125 C-68.00740669 136.05093307 -67.91118155 138.14976944 -70.5 142.4375 C-75.2594336 147.3029934 -80.7547448 148.29603835 -87.375 148.5 C-98.86295724 148.15362943 -108.75893199 143.7716804 -117.0625 135.8125 C-120.29249914 132.91768945 -123.05436993 132.15471005 -127.359375 131.95703125 C-132.06559918 132.32631526 -134.72536418 134.26661976 -137.8125 137.6875 C-141.05755889 142.37480729 -141.489861 146.5075388 -140.5 152.125 C-138.63250146 155.31910573 -136.213201 157.63572921 -133.5 160.125 C-132.92121094 160.72054687 -132.34242188 161.31609375 -131.74609375 161.9296875 C-125.41890761 168.07922046 -116.69567625 172.77278414 -108.16796875 174.9921875 C-105.5 176.125 -105.5 176.125 -104.43359375 178.55078125 C-104.26988281 179.50339844 -104.10617188 180.45601562 -103.9375 181.4375 C-102.51579761 187.8646043 -99.93560045 190.50126637 -94.5 194.125 C-89.55631368 194.85676768 -85.56426199 194.64745588 -81.0625 192.4375 C-75.65044175 187.55344744 -74.94259101 183.13014732 -74.5 176.125 C-73.571875 176.08375 -72.64375 176.0425 -71.6875 176 C-61.08686762 174.41845404 -51.36525864 166.21532376 -44.87109375 158.0859375 C-43.57742103 156.14735928 -42.50884669 154.22471343 -41.5 152.125 C-41.02433594 151.1659375 -41.02433594 151.1659375 -40.5390625 150.1875 C-36.94429893 141.48091668 -37.16046052 130.13460354 -40 121.25 C-46.64393851 105.8930764 -60.28674149 98.02008675 -75.14866638 92.10470581 C-77.61583946 91.14210512 -80.08844544 90.19475793 -82.5625 89.25 C-85.07536393 88.27681132 -87.5861783 87.29878837 -90.09458923 86.31417847 C-91.63982961 85.70898766 -93.18786034 85.11085688 -94.73902893 84.52102661 C-101.79628272 81.78265809 -101.79628272 81.78265809 -104.5 79.125 C-105.0625 75.75 -105.0625 75.75 -104.5 72.125 C-101.39177688 68.01117528 -98.52062612 66.16701674 -93.5 65.125 C-83.48644501 63.96063314 -74.61356221 67.00625445 -66.1875 72.3125 C-62.21661374 74.80142871 -59.32183107 76.30358634 -54.5 76.125 C-49.98708671 74.7344426 -47.12141325 72.85794896 -44.0625 69.25 C-41.63913995 64.4032799 -41.21419111 61.60167926 -42.25 56.25 C-46.03282038 47.32118071 -57.19440603 43.02084222 -65.45703125 39.25390625 C-68.48780481 38.12952427 -71.30120223 37.54098715 -74.5 37.125 C-74.52578125 36.54492188 -74.5515625 35.96484375 -74.578125 35.3671875 C-74.97334133 29.92398075 -75.7729055 26.35575592 -79.5 22.125 C-87.53674402 16.64540181 -96.07225844 18.1068929 -102.375 25.25 Z " fill="#000000" transform="translate(345.5,266.875)"/>
<path d="M0 0 C1.83134256 -0.00417542 3.66268253 -0.00965407 5.49401772 -0.01631981 C10.51479732 -0.03076585 15.53541265 -0.02653228 20.55620122 -0.019153 C25.97554262 -0.01442157 31.39484847 -0.02693098 36.81417847 -0.03717041 C47.42663649 -0.05436425 58.03903533 -0.05519719 68.65150367 -0.04995751 C77.27772695 -0.04591563 85.90393274 -0.04735957 94.53015518 -0.05270576 C95.75802021 -0.05345419 96.98588524 -0.05420261 98.2509583 -0.05497371 C100.74538946 -0.05650519 103.23982061 -0.05804354 105.73425175 -0.05958868 C129.12528429 -0.07331586 152.51628338 -0.06787451 175.90731515 -0.05640347 C197.30354813 -0.04626117 218.69969278 -0.05941151 240.09591268 -0.08333766 C262.06935086 -0.10772401 284.04274875 -0.11733765 306.01620018 -0.11068493 C318.3511056 -0.10719166 330.68594451 -0.10943194 343.02083969 -0.12693596 C353.52135286 -0.14165211 364.02175269 -0.14230098 374.52226363 -0.12486505 C379.87856471 -0.11634789 385.23466326 -0.11422315 390.59095383 -0.1295166 C395.49739097 -0.14335206 400.40345185 -0.138615 405.30986716 -0.11927737 C407.08165182 -0.11551357 408.85346654 -0.11845024 410.62522446 -0.12888902 C425.30639673 -0.20921363 437.1988599 2.11335934 448.29592896 12.38768005 C456.1231664 20.58067626 458.88798381 28.15758002 460.13577271 39.38768005 C291.17577271 39.38768005 122.21577271 39.38768005 -51.86422729 39.38768005 C-50.49883977 27.09919232 -46.16433592 17.71317694 -36.86422729 9.38768005 C-25.14051473 0.75114867 -14.01285027 -0.0519003 0 0 Z " fill="#000000" transform="translate(51.864227294921875,-0.3876800537109375)"/>
<path d="M0 0 C168.96 0 337.92 0 512 0 C512 10.23 512 20.46 512 31 C343.04 31 174.08 31 0 31 C0 20.77 0 10.54 0 0 Z " fill="#000000" transform="translate(0,68)"/>
</svg>
